<svg width="80" height="60" viewBox="0 0 80 60" fill="none" xmlns="http://www.w3.org/2000/svg">
<rect width="80" height="60" rx="30" fill="#1B1E23" style="fill:#1B1E23;fill:color(display-p3 0.1059 0.1176 0.1373);fill-opacity:1;"/>
<rect x="3" y="3" width="74" height="54" rx="27" fill="#4EB944" style="fill:#4EB944;fill:color(display-p3 0.3059 0.7255 0.2667);fill-opacity:1;"/>
<path d="M50 3C64.9117 3 77 15.0883 77 30C77 44.9117 64.9117 57 50 57H30C15.0883 57 3 44.9117 3 30C3 15.0883 15.0883 3 30 3H50Z" fill="#214B1B" style="fill:#214B1B;fill:color(display-p3 0.1294 0.2941 0.1059);fill-opacity:1;"/>
<rect x="9" y="9" width="62" height="42" rx="21" fill="#1B1E23" style="fill:#1B1E23;fill:color(display-p3 0.1059 0.1176 0.1373);fill-opacity:1;"/>
<path d="M26.5926 23.808C29.2326 23.808 31.3606 26.192 31.3606 30.048C31.3606 33.888 29.2326 36.272 26.5926 36.272C23.9686 36.272 21.8566 33.888 21.8566 30.048C21.8566 26.192 23.9686 23.808 26.5926 23.808ZM26.5926 25.888C25.2006 25.888 24.0966 27.408 24.0966 30.048C24.0966 32.672 25.2006 34.176 26.5926 34.176C28.0006 34.176 29.1526 32.656 29.1526 30.048C29.1526 27.408 28.0006 25.888 26.5926 25.888ZM32.3007 38.144L37.6767 21.952H39.7887L34.3967 38.144H32.3007ZM43.6171 36V26.976L40.8651 28.112V25.872L45.6491 23.984H45.8251V36H43.6171ZM53.3894 23.808C56.0294 23.808 58.1574 26.192 58.1574 30.048C58.1574 33.888 56.0294 36.272 53.3894 36.272C50.7654 36.272 48.6534 33.888 48.6534 30.048C48.6534 26.192 50.7654 23.808 53.3894 23.808ZM53.3894 25.888C51.9974 25.888 50.8934 27.408 50.8934 30.048C50.8934 32.672 51.9974 34.176 53.3894 34.176C54.7974 34.176 55.9494 32.656 55.9494 30.048C55.9494 27.408 54.7974 25.888 53.3894 25.888Z" fill="#EDF8EC" style="fill:#EDF8EC;fill:color(display-p3 0.9294 0.9725 0.9255);fill-opacity:1;"/>
</svg>
