<svg width="80" height="60" viewBox="0 0 80 60" fill="none" xmlns="http://www.w3.org/2000/svg">
<rect width="80" height="60" rx="30" fill="#1B1E23" style="fill:#1B1E23;fill:color(display-p3 0.1059 0.1176 0.1373);fill-opacity:1;"/>
<rect x="3" y="3" width="74" height="54" rx="27" fill="#86170B" style="fill:#86170B;fill:color(display-p3 0.5255 0.0902 0.0431);fill-opacity:1;"/>
<path d="M50 3C64.9117 3 77 15.0883 77 30C77 44.9117 64.9117 57 50 57H30C15.0883 57 3 44.9117 3 30C3 15.0883 15.0883 3 30 3H50Z" fill="#F1181F" style="fill:#F1181F;fill:color(display-p3 0.9451 0.0941 0.1216);fill-opacity:1;"/>
<rect x="9" y="9" width="62" height="42" rx="21" fill="#1B1E23" style="fill:#1B1E23;fill:color(display-p3 0.1059 0.1176 0.1373);fill-opacity:1;"/>
<path d="M20.5624 36V26.976L17.8104 28.112V25.872L22.5944 23.984H22.7704V36H20.5624ZM30.3348 23.808C32.9748 23.808 35.1028 26.192 35.1028 30.048C35.1028 33.888 32.9748 36.272 30.3348 36.272C27.7108 36.272 25.5988 33.888 25.5988 30.048C25.5988 26.192 27.7108 23.808 30.3348 23.808ZM30.3348 25.888C28.9427 25.888 27.8388 27.408 27.8388 30.048C27.8388 32.672 28.9427 34.176 30.3348 34.176C31.7428 34.176 32.8948 32.656 32.8948 30.048C32.8948 27.408 31.7428 25.888 30.3348 25.888ZM36.0429 38.144L41.4189 21.952H43.5309L38.1389 38.144H36.0429ZM47.3593 36V26.976L44.6073 28.112V25.872L49.3913 23.984H49.5673V36H47.3593ZM57.1316 23.808C59.7716 23.808 61.8996 26.192 61.8996 30.048C61.8996 33.888 59.7716 36.272 57.1316 36.272C54.5076 36.272 52.3956 33.888 52.3956 30.048C52.3956 26.192 54.5076 23.808 57.1316 23.808ZM57.1316 25.888C55.7396 25.888 54.6356 27.408 54.6356 30.048C54.6356 32.672 55.7396 34.176 57.1316 34.176C58.5396 34.176 59.6916 32.656 59.6916 30.048C59.6916 27.408 58.5396 25.888 57.1316 25.888Z" fill="#EDF8EC" style="fill:#EDF8EC;fill:color(display-p3 0.9294 0.9725 0.9255);fill-opacity:1;"/>
</svg>
