<svg width="80" height="60" viewBox="0 0 80 60" fill="none" xmlns="http://www.w3.org/2000/svg">
<rect width="80" height="60" rx="30" fill="#1B1E23" style="fill:#1B1E23;fill:color(display-p3 0.1059 0.1176 0.1373);fill-opacity:1;"/>
<rect x="3" y="3" width="74" height="54" rx="27" fill="#214B1B" style="fill:#214B1B;fill:color(display-p3 0.1294 0.2941 0.1059);fill-opacity:1;"/>
<path d="M50 3C53.1144 3 56.105 3.52885 58.8887 4.49902L40 30V3H50Z" fill="#4EB944" style="fill:#4EB944;fill:color(display-p3 0.3059 0.7255 0.2667);fill-opacity:1;"/>
<rect x="9" y="9" width="62" height="42" rx="21" fill="#1B1E23" style="fill:#1B1E23;fill:color(display-p3 0.1059 0.1176 0.1373);fill-opacity:1;"/>
<path d="M25.9764 36V26.976L23.2244 28.112V25.872L28.0084 23.984H28.1844V36H25.9764ZM30.6288 38.144L36.0048 21.952H38.1168L32.7248 38.144H30.6288ZM41.9452 36V26.976L39.1932 28.112V25.872L43.9772 23.984H44.1532V36H41.9452ZM51.7176 23.808C54.3576 23.808 56.4856 26.192 56.4856 30.048C56.4856 33.888 54.3576 36.272 51.7176 36.272C49.0936 36.272 46.9816 33.888 46.9816 30.048C46.9816 26.192 49.0936 23.808 51.7176 23.808ZM51.7176 25.888C50.3256 25.888 49.2216 27.408 49.2216 30.048C49.2216 32.672 50.3256 34.176 51.7176 34.176C53.1256 34.176 54.2776 32.656 54.2776 30.048C54.2776 27.408 53.1256 25.888 51.7176 25.888Z" fill="#EDF8EC" style="fill:#EDF8EC;fill:color(display-p3 0.9294 0.9725 0.9255);fill-opacity:1;"/>
</svg>
