<svg width="80" height="60" viewBox="0 0 80 60" fill="none" xmlns="http://www.w3.org/2000/svg">
<rect width="80" height="60" rx="30" fill="#1B1E23" style="fill:#1B1E23;fill:color(display-p3 0.1059 0.1176 0.1373);fill-opacity:1;"/>
<rect x="3" y="3" width="74" height="54" rx="27" fill="#3E4D17" style="fill:#3E4D17;fill:color(display-p3 0.2431 0.3020 0.0902);fill-opacity:1;"/>
<path d="M50 3C60.9115 3 70.3104 9.47294 74.5684 18.7881L40 30V3H50Z" fill="#74B041" style="fill:#74B041;fill:color(display-p3 0.4549 0.6902 0.2549);fill-opacity:1;"/>
<rect x="9" y="9" width="62" height="42" rx="21" fill="#1B1E23" style="fill:#1B1E23;fill:color(display-p3 0.1059 0.1176 0.1373);fill-opacity:1;"/>
<path d="M21.9956 36C27.1476 30.08 27.6756 29.184 27.6756 27.92C27.6756 26.832 26.8756 25.888 25.5316 25.888C24.3476 25.888 23.3076 26.512 22.6356 27.264V24.96C23.3556 24.32 24.5716 23.808 25.8996 23.808C28.3956 23.808 29.9796 25.472 29.9796 27.712C29.9796 29.504 28.5236 31.312 26.1076 33.952H30.4596V36H21.9956ZM31.7616 38.144L37.1376 21.952H39.2496L33.8576 38.144H31.7616ZM43.078 36V26.976L40.326 28.112V25.872L45.11 23.984H45.286V36H43.078ZM52.8504 23.808C55.4904 23.808 57.6184 26.192 57.6184 30.048C57.6184 33.888 55.4904 36.272 52.8504 36.272C50.2264 36.272 48.1144 33.888 48.1144 30.048C48.1144 26.192 50.2264 23.808 52.8504 23.808ZM52.8504 25.888C51.4584 25.888 50.3544 27.408 50.3544 30.048C50.3544 32.672 51.4584 34.176 52.8504 34.176C54.2584 34.176 55.4104 32.656 55.4104 30.048C55.4104 27.408 54.2584 25.888 52.8504 25.888Z" fill="#EDF8EC" style="fill:#EDF8EC;fill:color(display-p3 0.9294 0.9725 0.9255);fill-opacity:1;"/>
</svg>
