<svg width="80" height="60" viewBox="0 0 80 60" fill="none" xmlns="http://www.w3.org/2000/svg">
<rect width="80" height="60" rx="30" fill="#1B1E23" style="fill:#1B1E23;fill:color(display-p3 0.1059 0.1176 0.1373);fill-opacity:1;"/>
<rect x="3" y="3" width="74" height="54" rx="27" fill="#5D4F13" style="fill:#5D4F13;fill:color(display-p3 0.3647 0.3098 0.0745);fill-opacity:1;"/>
<path d="M50 3C64.9117 3 77 15.0883 77 30C77 33.9999 76.1291 37.7962 74.5684 41.2109L40 30V3H50Z" fill="#97A63D" style="fill:#97A63D;fill:color(display-p3 0.5922 0.6510 0.2392);fill-opacity:1;"/>
<rect x="9" y="9" width="62" height="42" rx="21" fill="#1B1E23" style="fill:#1B1E23;fill:color(display-p3 0.1059 0.1176 0.1373);fill-opacity:1;"/>
<path d="M22.8949 24.864C23.6309 24.24 24.7509 23.808 26.0629 23.808C28.5589 23.808 29.9509 25.344 29.9509 27.072C29.9509 28.272 29.3109 29.248 28.2709 29.76V29.808C29.3589 30.224 30.3349 31.216 30.3349 32.736C30.3349 34.544 28.8309 36.256 26.0469 36.256C24.7189 36.256 23.5509 35.872 22.6229 35.12V32.864C23.3909 33.696 24.4629 34.24 25.7269 34.24C27.1189 34.24 28.0629 33.52 28.0629 32.496C28.0629 31.504 27.2309 30.8 25.6629 30.8H24.1589V29.056H25.3749C27.0069 29.056 27.7589 28.352 27.7589 27.408C27.7589 26.528 27.0389 25.824 25.6949 25.824C24.5269 25.824 23.5349 26.304 22.8949 26.976V24.864ZM31.5663 38.144L36.9423 21.952H39.0543L33.6623 38.144H31.5663ZM42.8827 36V26.976L40.1307 28.112V25.872L44.9147 23.984H45.0907V36H42.8827ZM52.6551 23.808C55.2951 23.808 57.4231 26.192 57.4231 30.048C57.4231 33.888 55.2951 36.272 52.6551 36.272C50.0311 36.272 47.9191 33.888 47.9191 30.048C47.9191 26.192 50.0311 23.808 52.6551 23.808ZM52.6551 25.888C51.2631 25.888 50.1591 27.408 50.1591 30.048C50.1591 32.672 51.2631 34.176 52.6551 34.176C54.0631 34.176 55.2151 32.656 55.2151 30.048C55.2151 27.408 54.0631 25.888 52.6551 25.888Z" fill="#EDF8EC" style="fill:#EDF8EC;fill:color(display-p3 0.9294 0.9725 0.9255);fill-opacity:1;"/>
</svg>
