<svg width="80" height="60" viewBox="0 0 80 60" fill="none" xmlns="http://www.w3.org/2000/svg">
<rect width="80" height="60" rx="30" fill="#1B1E23" style="fill:#1B1E23;fill:color(display-p3 0.1059 0.1176 0.1373);fill-opacity:1;"/>
<rect x="3" y="3" width="74" height="54" rx="27" fill="#7E510E" style="fill:#7E510E;fill:color(display-p3 0.4941 0.3176 0.0549);fill-opacity:1;"/>
<path d="M53.0811 3.17578C66.5418 4.70497 77 16.1302 77 30C77 41.7972 69.4331 51.8248 58.8887 55.5L40 30V3L53.0811 3.17578Z" fill="#C19D3A" style="fill:#C19D3A;fill:color(display-p3 0.7569 0.6157 0.2275);fill-opacity:1;"/>
<rect x="9" y="9" width="62" height="42" rx="21" fill="#1B1E23" style="fill:#1B1E23;fill:color(display-p3 0.1059 0.1176 0.1373);fill-opacity:1;"/>
<path d="M31.2088 31.504V33.344H29.2568V36H27.1768V33.344H21.4648V32.032L27.3208 24.08H29.2568V31.504H31.2088ZM23.8328 31.504H27.1768V26.928L23.8328 31.472V31.504ZM32.3085 38.144L37.6845 21.952H39.7965L34.4045 38.144H32.3085ZM43.6249 36V26.976L40.8729 28.112V25.872L45.6569 23.984H45.8329V36H43.6249ZM53.3973 23.808C56.0373 23.808 58.1653 26.192 58.1653 30.048C58.1653 33.888 56.0373 36.272 53.3973 36.272C50.7733 36.272 48.6613 33.888 48.6613 30.048C48.6613 26.192 50.7733 23.808 53.3973 23.808ZM53.3973 25.888C52.0052 25.888 50.9013 27.408 50.9013 30.048C50.9013 32.672 52.0052 34.176 53.3973 34.176C54.8053 34.176 55.9573 32.656 55.9573 30.048C55.9573 27.408 54.8053 25.888 53.3973 25.888Z" fill="#EDF8EC" style="fill:#EDF8EC;fill:color(display-p3 0.9294 0.9725 0.9255);fill-opacity:1;"/>
</svg>
