<svg width="80" height="60" viewBox="0 0 80 60" fill="none" xmlns="http://www.w3.org/2000/svg">
<rect width="80" height="60" rx="30" fill="#1B1E23" style="fill:#1B1E23;fill:color(display-p3 0.1059 0.1176 0.1373);fill-opacity:1;"/>
<rect x="3" y="3" width="74" height="54" rx="27" fill="#5C3910" style="fill:#5C3910;fill:color(display-p3 0.3608 0.2235 0.0627);fill-opacity:1;"/>
<path d="M50 3C64.9117 3 77 15.0883 77 30C77 44.9117 64.9117 57 50 57H40V3H50Z" fill="#F79035" style="fill:#F79035;fill:color(display-p3 0.9686 0.5647 0.2078);fill-opacity:1;"/>
<rect x="9" y="9" width="62" height="42" rx="21" fill="#1B1E23" style="fill:#1B1E23;fill:color(display-p3 0.1059 0.1176 0.1373);fill-opacity:1;"/>
<path d="M29.7973 24.08V26.112H25.7013L25.2213 28.624C25.4773 28.544 25.9093 28.464 26.3093 28.464C28.9333 28.464 30.3733 30.256 30.3733 32.192C30.3733 34.208 28.9173 36.272 25.8932 36.272C24.5973 36.272 23.4293 35.872 22.5973 35.232V32.864C23.4133 33.68 24.5653 34.16 25.7013 34.16C27.1733 34.16 28.0533 33.328 28.0533 32.224C28.0533 31.088 27.1733 30.224 25.4933 30.224C24.6133 30.224 23.9733 30.448 23.4613 30.688L23.1253 30.448L24.1173 24.08H29.7973ZM31.496 38.144L36.872 21.952H38.984L33.592 38.144H31.496ZM42.8124 36V26.976L40.0604 28.112V25.872L44.8444 23.984H45.0204V36H42.8124ZM52.5848 23.808C55.2248 23.808 57.3528 26.192 57.3528 30.048C57.3528 33.888 55.2248 36.272 52.5848 36.272C49.9608 36.272 47.8488 33.888 47.8488 30.048C47.8488 26.192 49.9608 23.808 52.5848 23.808ZM52.5848 25.888C51.1927 25.888 50.0888 27.408 50.0888 30.048C50.0888 32.672 51.1927 34.176 52.5848 34.176C53.9928 34.176 55.1448 32.656 55.1448 30.048C55.1448 27.408 53.9928 25.888 52.5848 25.888Z" fill="#EDF8EC" style="fill:#EDF8EC;fill:color(display-p3 0.9294 0.9725 0.9255);fill-opacity:1;"/>
</svg>
