<svg width="40" height="40" viewBox="0 0 40 40" fill="none" xmlns="http://www.w3.org/2000/svg">
<circle cx="20" cy="20" r="20" fill="#1B1E23" style="fill:#1B1E23;fill:color(display-p3 0.1059 0.1176 0.1373);fill-opacity:1;"/>
<g clip-path="url(#clip0_565_1042)">
<path d="M20 36C28.8366 36 36 28.8366 36 20C36 11.1634 28.8366 4 20 4C11.1634 4 4 11.1634 4 20C4 28.8366 11.1634 36 20 36Z" stroke="#763905" style="stroke:#763905;stroke:color(display-p3 0.4627 0.2235 0.0196);stroke-opacity:1;" stroke-width="4" stroke-miterlimit="10"/>
<path d="M20 4C28.835 4 36 11.165 36 20C36 28.835 28.835 36 20 36" stroke="#EF8F0C" style="stroke:#EF8F0C;stroke:color(display-p3 0.9373 0.5608 0.0471);stroke-opacity:1;" stroke-width="4" stroke-miterlimit="10"/>
</g>
<path d="M22.9124 14.57V16.348H19.3284L18.9084 18.546C19.1324 18.476 19.5104 18.406 19.8604 18.406C22.1564 18.406 23.4164 19.974 23.4164 21.668C23.4164 23.432 22.1424 25.238 19.4964 25.238C18.3624 25.238 17.3404 24.888 16.6124 24.328V22.256C17.3264 22.97 18.3344 23.39 19.3284 23.39C20.6164 23.39 21.3864 22.662 21.3864 21.696C21.3864 20.702 20.6164 19.946 19.1464 19.946C18.3764 19.946 17.8164 20.142 17.3684 20.352L17.0744 20.142L17.9424 14.57H22.9124Z" fill="#EDF8EC" style="fill:#EDF8EC;fill:color(display-p3 0.9294 0.9725 0.9255);fill-opacity:1;"/>
<defs>
<clipPath id="clip0_565_1042">
<rect width="36" height="36" fill="white" style="fill:white;fill-opacity:1;" transform="translate(2 2)"/>
</clipPath>
</defs>
</svg>
