<svg width="80" height="60" viewBox="0 0 80 60" fill="none" xmlns="http://www.w3.org/2000/svg">
<rect width="80" height="60" rx="30" fill="#1B1E23" style="fill:#1B1E23;fill:color(display-p3 0.1059 0.1176 0.1373);fill-opacity:1;"/>
<rect x="3" y="3" width="74" height="54" rx="27" fill="#A74C07" style="fill:#A74C07;fill:color(display-p3 0.6549 0.2980 0.0275);fill-opacity:1;"/>
<path d="M50 3C64.9117 3 77 15.0883 77 30C77 44.9117 64.9117 57 50 57H30C27.0261 57 24.1651 56.517 21.4893 55.6289L40 30V3H50Z" fill="#F68132" style="fill:#F68132;fill:color(display-p3 0.9647 0.5059 0.1961);fill-opacity:1;"/>
<rect x="9" y="9" width="62" height="42" rx="21" fill="#1B1E23" style="fill:#1B1E23;fill:color(display-p3 0.1059 0.1176 0.1373);fill-opacity:1;"/>
<path d="M26.9598 28.128C28.9918 28.128 30.9438 29.744 30.9438 32C30.9438 34.368 29.1358 36.272 26.5118 36.272C23.8878 36.272 22.0798 34.368 22.0798 32.064C22.0798 30.624 22.7998 29.392 23.8398 28.16L27.1358 24.08H29.8078L26.5278 28.144C26.6718 28.144 26.8158 28.128 26.9598 28.128ZM26.4958 34.272C27.8078 34.272 28.7198 33.232 28.7198 32.048C28.7198 30.592 27.5518 29.792 26.2718 29.792C25.8558 29.792 25.4398 29.872 25.0398 30.048C24.5278 30.704 24.2718 31.28 24.2718 32.032C24.2718 33.216 25.1838 34.272 26.4958 34.272ZM31.9335 38.144L37.3095 21.952H39.4215L34.0295 38.144H31.9335ZM43.2499 36V26.976L40.4979 28.112V25.872L45.2819 23.984H45.4579V36H43.2499ZM53.0223 23.808C55.6623 23.808 57.7903 26.192 57.7903 30.048C57.7903 33.888 55.6623 36.272 53.0223 36.272C50.3983 36.272 48.2863 33.888 48.2863 30.048C48.2863 26.192 50.3983 23.808 53.0223 23.808ZM53.0223 25.888C51.6302 25.888 50.5263 27.408 50.5263 30.048C50.5263 32.672 51.6302 34.176 53.0223 34.176C54.4303 34.176 55.5823 32.656 55.5823 30.048C55.5823 27.408 54.4303 25.888 53.0223 25.888Z" fill="#EDF8EC" style="fill:#EDF8EC;fill:color(display-p3 0.9294 0.9725 0.9255);fill-opacity:1;"/>
</svg>
