<svg width="80" height="60" viewBox="0 0 80 60" fill="none" xmlns="http://www.w3.org/2000/svg">
<rect width="80" height="60" rx="30" fill="#1B1E23" style="fill:#1B1E23;fill:color(display-p3 0.1059 0.1176 0.1373);fill-opacity:1;"/>
<rect x="3" y="3" width="74" height="54" rx="27" fill="#6D270E" style="fill:#6D270E;fill:color(display-p3 0.4275 0.1529 0.0549);fill-opacity:1;"/>
<path d="M50 3C64.9117 3 77 15.0883 77 30C77 44.9117 64.9117 57 50 57H30C19.0881 57 9.68833 50.5267 5.43066 41.2109L40 30V3H50Z" fill="#F5692E" style="fill:#F5692E;fill:color(display-p3 0.9608 0.4118 0.1804);fill-opacity:1;"/>
<rect x="9" y="9" width="62" height="42" rx="21" fill="#1B1E23" style="fill:#1B1E23;fill:color(display-p3 0.1059 0.1176 0.1373);fill-opacity:1;"/>
<path d="M23.1047 36L28.3207 26.112H23.0887V24.08H31.6167L25.4727 36H23.1047ZM30.9726 38.144L36.3486 21.952H38.4606L33.0686 38.144H30.9726ZM42.2889 36V26.976L39.5369 28.112V25.872L44.3209 23.984H44.4969V36H42.2889ZM52.0613 23.808C54.7013 23.808 56.8293 26.192 56.8293 30.048C56.8293 33.888 54.7013 36.272 52.0613 36.272C49.4373 36.272 47.3253 33.888 47.3253 30.048C47.3253 26.192 49.4373 23.808 52.0613 23.808ZM52.0613 25.888C50.6693 25.888 49.5653 27.408 49.5653 30.048C49.5653 32.672 50.6693 34.176 52.0613 34.176C53.4693 34.176 54.6213 32.656 54.6213 30.048C54.6213 27.408 53.4693 25.888 52.0613 25.888Z" fill="#EDF8EC" style="fill:#EDF8EC;fill:color(display-p3 0.9294 0.9725 0.9255);fill-opacity:1;"/>
</svg>
