<svg width="40" height="40" viewBox="0 0 40 40" fill="none" xmlns="http://www.w3.org/2000/svg">
<circle cx="20" cy="20" r="20" fill="#1B1E23" style="fill:#1B1E23;fill:color(display-p3 0.1059 0.1176 0.1373);fill-opacity:1;"/>
<g clip-path="url(#clip0_565_1036)">
<path d="M20 36C28.8366 36 36 28.8366 36 20C36 11.1634 28.8366 4 20 4C11.1634 4 4 11.1634 4 20C4 28.8366 11.1634 36 20 36Z" stroke="#7D070B" style="stroke:#7D070B;stroke:color(display-p3 0.4902 0.0275 0.0431);stroke-opacity:1;" stroke-width="4" stroke-miterlimit="10"/>
<path d="M20 4C28.835 4 36 11.165 36 20C36 28.835 28.835 36 20 36C12.89 36 6.86003 31.36 4.78003 24.945" stroke="#F1181F" style="stroke:#F1181F;stroke:color(display-p3 0.9451 0.0941 0.1216);stroke-opacity:1;" stroke-width="4" stroke-miterlimit="10"/>
</g>
<path d="M22.0279 19.624C23.2039 20.072 23.8199 21.066 23.8199 22.2C23.8199 23.852 22.3919 25.238 19.9979 25.238C17.6459 25.238 16.1899 23.838 16.1899 22.2C16.1899 21.108 16.8059 20.058 17.9679 19.624V19.596C17.1419 19.19 16.4839 18.392 16.4839 17.23C16.4839 15.718 17.7719 14.332 19.9979 14.332C22.2239 14.332 23.5119 15.718 23.5119 17.216C23.5119 18.392 22.8539 19.19 22.0279 19.596V19.624ZM18.3039 17.468C18.3039 18.294 18.9759 18.952 19.9979 18.952C21.0339 18.952 21.7059 18.294 21.7059 17.468C21.7059 16.698 21.0479 15.97 19.9979 15.97C18.9479 15.97 18.3039 16.684 18.3039 17.468ZM19.9979 20.422C18.8359 20.422 18.1219 21.136 18.1219 22.018C18.1219 22.844 18.8079 23.6 19.9979 23.6C21.2159 23.6 21.9019 22.844 21.9019 22.018C21.9019 21.136 21.1739 20.422 19.9979 20.422Z" fill="#EDF8EC" style="fill:#EDF8EC;fill:color(display-p3 0.9294 0.9725 0.9255);fill-opacity:1;"/>
<defs>
<clipPath id="clip0_565_1036">
<rect width="36" height="36" fill="white" style="fill:white;fill-opacity:1;" transform="translate(2 2)"/>
</clipPath>
</defs>
</svg>
