<svg width="80" height="60" viewBox="0 0 80 60" fill="none" xmlns="http://www.w3.org/2000/svg">
<rect width="80" height="60" rx="30" fill="#1B1E23" style="fill:#1B1E23;fill:color(display-p3 0.1059 0.1176 0.1373);fill-opacity:1;"/>
<rect x="3" y="3" width="74" height="54" rx="27" fill="#731A0C" style="fill:#731A0C;fill:color(display-p3 0.4510 0.1020 0.0471);fill-opacity:1;"/>
<path d="M50 3C64.9117 3 77 15.0883 77 30C77 44.9117 64.9117 57 50 57H30C15.0883 57 3 44.9117 3 30C3 25.9999 3.86979 22.203 5.43066 18.7881L40 30V3H50Z" fill="#F34B29" style="fill:#F34B29;fill:color(display-p3 0.9529 0.2941 0.1608);fill-opacity:1;"/>
<rect x="9" y="9" width="62" height="42" rx="21" fill="#1B1E23" style="fill:#1B1E23;fill:color(display-p3 0.1059 0.1176 0.1373);fill-opacity:1;"/>
<path d="M28.7708 29.856C30.1148 30.368 30.8188 31.504 30.8188 32.8C30.8188 34.688 29.1868 36.272 26.4508 36.272C23.7628 36.272 22.0988 34.672 22.0988 32.8C22.0988 31.552 22.8028 30.352 24.1308 29.856V29.824C23.1868 29.36 22.4348 28.448 22.4348 27.12C22.4348 25.392 23.9068 23.808 26.4508 23.808C28.9948 23.808 30.4668 25.392 30.4668 27.104C30.4668 28.448 29.7148 29.36 28.7708 29.824V29.856ZM24.5148 27.392C24.5148 28.336 25.2828 29.088 26.4508 29.088C27.6348 29.088 28.4028 28.336 28.4028 27.392C28.4028 26.512 27.6508 25.68 26.4508 25.68C25.2508 25.68 24.5148 26.496 24.5148 27.392ZM26.4508 30.768C25.1228 30.768 24.3068 31.584 24.3068 32.592C24.3068 33.536 25.0908 34.4 26.4508 34.4C27.8428 34.4 28.6268 33.536 28.6268 32.592C28.6268 31.584 27.7948 30.768 26.4508 30.768ZM32.0585 38.144L37.4345 21.952H39.5465L34.1545 38.144H32.0585ZM43.3749 36V26.976L40.6229 28.112V25.872L45.4069 23.984H45.5829V36H43.3749ZM53.1473 23.808C55.7873 23.808 57.9153 26.192 57.9153 30.048C57.9153 33.888 55.7873 36.272 53.1473 36.272C50.5233 36.272 48.4113 33.888 48.4113 30.048C48.4113 26.192 50.5233 23.808 53.1473 23.808ZM53.1473 25.888C51.7552 25.888 50.6513 27.408 50.6513 30.048C50.6513 32.672 51.7552 34.176 53.1473 34.176C54.5553 34.176 55.7073 32.656 55.7073 30.048C55.7073 27.408 54.5553 25.888 53.1473 25.888Z" fill="#EDF8EC" style="fill:#EDF8EC;fill:color(display-p3 0.9294 0.9725 0.9255);fill-opacity:1;"/>
</svg>
