<svg width="80" height="60" viewBox="0 0 80 60" fill="none" xmlns="http://www.w3.org/2000/svg">
<rect width="80" height="60" rx="30" fill="#1B1E23" style="fill:#1B1E23;fill:color(display-p3 0.1059 0.1176 0.1373);fill-opacity:1;"/>
<rect x="3" y="3" width="74" height="54" rx="27" fill="#79100C" style="fill:#79100C;fill:color(display-p3 0.4745 0.0627 0.0471);fill-opacity:1;"/>
<path d="M50 3C64.9117 3 77 15.0883 77 30C77 44.9117 64.9117 57 50 57H30C15.0883 57 3 44.9117 3 30C3 18.0622 10.748 7.9351 21.4893 4.37012L40 30V3H50Z" fill="#F23224" style="fill:#F23224;fill:color(display-p3 0.9490 0.1961 0.1412);fill-opacity:1;"/>
<rect x="9" y="9" width="62" height="42" rx="21" fill="#1B1E23" style="fill:#1B1E23;fill:color(display-p3 0.1059 0.1176 0.1373);fill-opacity:1;"/>
<path d="M26.7662 23.808C29.3902 23.808 31.1342 25.68 31.1342 27.984C31.1342 29.328 30.4782 30.592 29.3902 31.872L26.0462 36H23.3902L26.6222 31.936C26.5262 31.952 26.4302 31.952 26.3502 31.952C24.2862 31.952 22.3662 30.384 22.3662 28.064C22.3662 25.744 24.1582 23.808 26.7662 23.808ZM28.1582 30.032C28.6702 29.36 28.9582 28.784 28.9582 28.016C28.9582 26.816 28.0782 25.792 26.7822 25.792C25.4702 25.792 24.5902 26.832 24.5902 28.016C24.5902 29.36 25.5982 30.272 26.9102 30.272C27.3102 30.272 27.7582 30.192 28.1582 30.032ZM31.5351 38.144L36.9111 21.952H39.0231L33.6311 38.144H31.5351ZM42.8514 36V26.976L40.0994 28.112V25.872L44.8834 23.984H45.0594V36H42.8514ZM52.6238 23.808C55.2638 23.808 57.3918 26.192 57.3918 30.048C57.3918 33.888 55.2638 36.272 52.6238 36.272C49.9998 36.272 47.8878 33.888 47.8878 30.048C47.8878 26.192 49.9998 23.808 52.6238 23.808ZM52.6238 25.888C51.2318 25.888 50.1278 27.408 50.1278 30.048C50.1278 32.672 51.2318 34.176 52.6238 34.176C54.0318 34.176 55.1838 32.656 55.1838 30.048C55.1838 27.408 54.0318 25.888 52.6238 25.888Z" fill="#EDF8EC" style="fill:#EDF8EC;fill:color(display-p3 0.9294 0.9725 0.9255);fill-opacity:1;"/>
</svg>
