<svg width="19" height="16" viewBox="0 0 19 16" fill="none" xmlns="http://www.w3.org/2000/svg">
<path d="M17.7188 2.14453L12.0938 6.64453C11.707 6.96094 11.1445 6.96094 10.7227 6.67969L6.92578 3.83203L1.96875 7.76953C1.47656 8.15625 0.773438 8.08594 0.386719 7.59375C0 7.10156 0.0703125 6.39844 0.5625 6.01172L6.1875 1.51172C6.57422 1.19531 7.17188 1.19531 7.55859 1.47656L11.3555 4.35938L16.3125 0.386719C16.8047 0 17.5078 0.0703125 17.8945 0.5625C18.2812 1.05469 18.2109 1.75781 17.7188 2.14453ZM5.76562 8.01562C5.76562 7.38281 6.25781 6.89062 6.89062 6.89062C7.52344 6.89062 8.01562 7.38281 8.01562 8.01562V14.7656C8.01562 15.3984 7.52344 15.8906 6.89062 15.8906C6.25781 15.8906 5.76562 15.3984 5.76562 14.7656V8.01562ZM1.26562 11.3906C1.26562 10.7578 1.75781 10.2656 2.39062 10.2656C3.02344 10.2656 3.51562 10.7578 3.51562 11.3906V14.7656C3.51562 15.3984 3.02344 15.8906 2.39062 15.8906C1.75781 15.8906 1.26562 15.3984 1.26562 14.7656V11.3906ZM11.3906 9.14062C12.0234 9.14062 12.5156 9.63281 12.5156 10.2656V14.7656C12.5156 15.3984 12.0234 15.8906 11.3906 15.8906C10.7578 15.8906 10.2656 15.3984 10.2656 14.7656V10.2656C10.2656 9.63281 10.7578 9.14062 11.3906 9.14062ZM14.7656 8.01562C14.7656 7.38281 15.2578 6.89062 15.8906 6.89062C16.5234 6.89062 17.0156 7.38281 17.0156 8.01562V14.7656C17.0156 15.3984 16.5234 15.8906 15.8906 15.8906C15.2578 15.8906 14.7656 15.3984 14.7656 14.7656V8.01562Z" fill="#A9B1C0" style="fill:#A9B1C0;fill:color(display-p3 0.6627 0.6941 0.7529);fill-opacity:1;"/>
</svg>
