<svg width="76" height="24" viewBox="0 0 76 24" fill="none" xmlns="http://www.w3.org/2000/svg">
<rect width="76" height="24" rx="12" fill="#184014" style="fill:#184014;fill:color(display-p3 0.0942 0.2501 0.0801);fill-opacity:1;"/>
<path d="M13 18.75C9.14453 18.75 6 15.6055 6 11.75C6 7.89453 9.14453 4.75 13 4.75C16.8555 4.75 20 7.89453 20 11.75C20 15.6055 16.8555 18.75 13 18.75ZM16.2266 8.74219C15.9258 8.52344 15.5156 8.57812 15.3242 8.87891L12.043 13.3633L10.6211 11.9414C10.375 11.6953 9.9375 11.6953 9.69141 11.9414C9.44531 12.2148 9.44531 12.625 9.69141 12.8711L11.6602 14.8398C11.7969 14.9766 11.9883 15.0586 12.1797 15.0312C12.3711 15.0312 12.5352 14.9219 12.6445 14.7578L16.3633 9.64453C16.582 9.37109 16.5273 8.96094 16.2266 8.74219Z" fill="#70C86A" style="fill:#70C86A;fill:color(display-p3 0.4392 0.7843 0.4157);fill-opacity:1;"/>
<path d="M37.139 16.5H35.839L34.708 13.562H30.561L29.43 16.5H28.156L31.952 6.828H33.317L37.139 16.5ZM32.628 8.18L30.951 12.483H34.305L32.628 8.18ZM38.3983 16.5V6.1H39.5943V16.5H38.3983ZM41.826 16.5V6.1H43.022V16.5H41.826ZM48.2827 16.656C46.2807 16.656 44.7727 15.109 44.7727 12.99C44.7727 10.871 46.2807 9.311 48.2827 9.311C50.2717 9.311 51.7667 10.871 51.7667 12.99C51.7667 15.096 50.2717 16.656 48.2827 16.656ZM48.2827 15.538C49.4527 15.538 50.5707 14.602 50.5707 12.99C50.5707 11.365 49.4527 10.429 48.2827 10.429C47.0997 10.429 45.9817 11.365 45.9817 12.99C45.9817 14.615 47.0997 15.538 48.2827 15.538ZM59.5934 16.5L57.8254 10.988H57.7864L56.0054 16.5H54.6404L52.6514 9.467H53.8994L55.3684 15.161H55.3944L57.1884 9.467H58.4364L60.2174 15.161H60.2564L61.7514 9.467H62.9344L60.9584 16.5H59.5934Z" fill="#EDF8EC" style="fill:#EDF8EC;fill:color(display-p3 0.9294 0.9725 0.9255);fill-opacity:1;"/>
</svg>
