<svg width="18" height="18" viewBox="0 0 18 18" fill="none" xmlns="http://www.w3.org/2000/svg">
<path d="M9 18C4.04297 18 0 13.957 0 9C0 4.04297 4.04297 0 9 0C13.957 0 18 4.04297 18 9C18 13.957 13.957 18 9 18ZM13.1484 5.13281C12.7617 4.85156 12.2344 4.92188 11.9883 5.30859L7.76953 11.0742L5.94141 9.24609C5.625 8.92969 5.0625 8.92969 4.74609 9.24609C4.42969 9.59766 4.42969 10.125 4.74609 10.4414L7.27734 12.9727C7.45312 13.1484 7.69922 13.2539 7.94531 13.2188C8.19141 13.2188 8.40234 13.0781 8.54297 12.8672L13.3242 6.29297C13.6055 5.94141 13.5352 5.41406 13.1484 5.13281Z" fill="#4CB944" style="fill:#4CB944;fill:color(display-p3 0.2980 0.7255 0.2667);fill-opacity:1;"/>
</svg>
