<svg width="18" height="18" viewBox="0 0 18 18" fill="none" xmlns="http://www.w3.org/2000/svg">
<path d="M11.8125 12.375C11.1445 12.375 10.5117 12.2695 9.91406 12.0938L8.75391 13.2539C8.61328 13.4297 8.36719 13.5 8.15625 13.5H6.75V14.9062C6.75 15.3633 6.36328 15.75 5.90625 15.75H4.5V17.1562C4.5 17.6133 4.11328 18 3.65625 18H0.84375C0.386719 18 0 17.6133 0 17.1562V14.3438C0 14.1328 0.105469 13.9219 0.246094 13.7461L5.90625 8.08594C5.73047 7.48828 5.625 6.85547 5.625 6.1875C5.625 2.77734 8.40234 0 11.8125 0C15.2227 0 18 2.77734 18 6.1875C18 9.59766 15.2227 12.375 11.8125 12.375ZM13.2188 3.375C12.4453 3.375 11.8125 4.00781 11.8125 4.78125C11.8125 5.55469 12.4453 6.1875 13.2188 6.1875C13.9922 6.1875 14.625 5.55469 14.625 4.78125C14.625 4.00781 13.9922 3.375 13.2188 3.375Z" fill="#ABDEED" style="fill:#ABDEED;fill:color(display-p3 0.6706 0.8706 0.9294);fill-opacity:1;"/>
</svg>
