<svg width="71" height="25" viewBox="0 0 71 25" fill="none" xmlns="http://www.w3.org/2000/svg">
<path d="M0 8C0 3.58172 3.58172 0 8 0H63C67.4183 0 71 3.58172 71 8V17C71 21.4183 67.4183 25 63 25H8C3.58172 25 0 21.4183 0 17V8Z" fill="#1F4B1B" style="fill:#1F4B1B;fill:color(display-p3 0.1216 0.2941 0.1059);fill-opacity:1;"/>
<circle cx="12" cy="12.5" r="4" fill="#4CB944" style="fill:#4CB944;fill:color(display-p3 0.2980 0.7255 0.2667);fill-opacity:1;"/>
<path d="M32.139 17H30.839L29.708 14.062H25.561L24.43 17H23.156L26.952 7.328H28.317L32.139 17ZM27.628 8.68L25.951 12.983H29.305L27.628 8.68ZM34.0374 13.477C34.0374 15.089 35.2074 16.038 36.4554 16.038C37.0404 16.038 37.7424 15.921 38.3274 15.466V16.675C37.8074 16.974 37.1444 17.156 36.3774 17.156C34.3494 17.156 32.8284 15.583 32.8284 13.477C32.8284 11.397 34.3494 9.811 36.3774 9.811C37.1054 9.811 37.7684 9.954 38.3274 10.305V11.527C37.7424 11.098 37.1704 10.929 36.4424 10.929C35.2074 10.929 34.0374 11.891 34.0374 13.477ZM41.5825 8.316V9.967H43.5975V11.007H41.5825V14.491C41.5825 15.583 42.2325 16.038 43.1295 16.038C43.3245 16.038 43.5325 16.012 43.7535 15.973V17.013C43.6235 17.039 43.3115 17.091 42.9215 17.091C41.4005 17.091 40.4125 16.181 40.4125 14.543V11.007H39.3595V9.967H40.4385V8.316H41.5825ZM45.8029 8.355C45.3739 8.355 45.0619 8.043 45.0619 7.627C45.0619 7.211 45.3739 6.899 45.8029 6.899C46.2319 6.899 46.5439 7.211 46.5439 7.627C46.5439 8.043 46.2319 8.355 45.8029 8.355ZM45.2049 17V9.967H46.4009V17H45.2049ZM50.3876 17L47.8266 9.967H49.1006L51.0376 15.674H51.0766L53.0136 9.967H54.2486L51.6876 17H50.3876ZM61.3913 13.347C61.3913 13.555 61.3783 13.724 61.3523 13.88H56.1393C56.3083 15.271 57.2963 16.116 58.6223 16.116C59.4283 16.116 60.2603 15.817 60.9883 15.193V16.376C60.2733 16.896 59.4413 17.156 58.5313 17.156C56.3473 17.156 54.9693 15.687 54.9693 13.516C54.9693 11.241 56.5423 9.811 58.3623 9.811C60.0263 9.811 61.3913 11.033 61.3913 13.347ZM56.1393 12.983H60.2343C60.2083 11.527 59.3113 10.851 58.3493 10.851C57.2703 10.851 56.3213 11.67 56.1393 12.983Z" fill="#EDF8EC" style="fill:#EDF8EC;fill:color(display-p3 0.9294 0.9725 0.9255);fill-opacity:1;"/>
</svg>
