<svg width="61" height="28" viewBox="0 0 61 28" fill="none" xmlns="http://www.w3.org/2000/svg">
<rect width="61" height="28" rx="14" fill="#1F4B1B" style="fill:#1F4B1B;fill:color(display-p3 0.1216 0.2941 0.1059);fill-opacity:1;"/>
<path d="M15 21.375C10.8691 21.375 7.5 18.0059 7.5 13.875C7.5 9.74414 10.8691 6.375 15 6.375C19.1309 6.375 22.5 9.74414 22.5 13.875C22.5 18.0059 19.1309 21.375 15 21.375ZM18.457 10.6523C18.1348 10.418 17.6953 10.4766 17.4902 10.7988L13.9746 15.6035L12.4512 14.0801C12.1875 13.8164 11.7188 13.8164 11.4551 14.0801C11.1914 14.373 11.1914 14.8125 11.4551 15.0762L13.5645 17.1855C13.7109 17.332 13.916 17.4199 14.1211 17.3906C14.3262 17.3906 14.502 17.2734 14.6191 17.0977L18.6035 11.6191C18.8379 11.3262 18.7793 10.8867 18.457 10.6523Z" fill="#70C86A" style="fill:#70C86A;fill:color(display-p3 0.4392 0.7843 0.4157);fill-opacity:1;"/>
<path d="M35.685 9.63V13.32H39.39V14.535H35.685V18.24H34.425V14.535H30.81V13.32H34.425V9.63H35.685ZM41.0734 9.12C41.7034 8.52 42.6934 8.115 43.8184 8.115C45.9184 8.115 47.1934 9.525 47.1934 11.1C47.1934 12.255 46.5784 13.2 45.5284 13.665V13.695C46.6084 14.07 47.5684 15 47.5684 16.5C47.5684 18.15 46.2634 19.695 43.8334 19.695C42.5734 19.695 41.5684 19.305 40.7734 18.6V17.04C41.4784 17.865 42.4984 18.405 43.7134 18.405C45.2284 18.405 46.1734 17.535 46.1734 16.38C46.1734 15.21 45.2134 14.385 43.5934 14.385H42.1984V13.2H43.2784C44.9734 13.2 45.8134 12.405 45.8134 11.28C45.8134 10.26 45.0484 9.42 43.6684 9.42C42.6034 9.42 41.6434 9.93 41.0734 10.605V9.12Z" fill="#EDF8EC" style="fill:#EDF8EC;fill:color(display-p3 0.9294 0.9725 0.9255);fill-opacity:1;"/>
</svg>
