<svg width="60" height="28" viewBox="0 0 60 28" fill="none" xmlns="http://www.w3.org/2000/svg">
<rect width="60" height="28" rx="14" fill="#7D070B" style="fill:#7D070B;fill:color(display-p3 0.4902 0.0275 0.0431);fill-opacity:1;"/>
<path d="M17.8125 6.84375C18.5742 6.84375 19.2773 7.25391 19.6289 7.89844L22.4707 12.8203C22.8223 13.4648 22.8223 14.2852 22.4707 14.9297L19.6289 19.8516C19.2773 20.4961 18.5742 20.9062 17.8125 20.9062H12.1875C11.4258 20.9062 10.752 20.4961 10.3711 19.8516L7.55859 14.9297C7.17773 14.2852 7.17773 13.4648 7.55859 12.8203L10.3711 7.89844C10.752 7.25391 11.4258 6.84375 12.1875 6.84375H17.8125ZM15 15.75C14.4727 15.75 14.0625 16.1602 14.0625 16.6875C14.0625 17.2148 14.4727 17.625 15 17.625C15.5273 17.625 15.9375 17.2148 15.9375 16.6875C15.9375 16.1602 15.5273 15.75 15 15.75ZM15 10.125C14.4727 10.125 14.0332 10.5938 14.0918 11.1211L14.2969 14.168C14.3262 14.5195 14.6191 14.8125 15 14.8125C15.3809 14.8125 15.6738 14.5195 15.7031 14.168L15.9082 11.1211C15.9668 10.5938 15.5273 10.125 15 10.125Z" fill="#F7787C" style="fill:#F7787C;fill:color(display-p3 0.9686 0.4706 0.4863);fill-opacity:1;"/>
<path d="M35.685 9.63V13.32H39.39V14.535H35.685V18.24H34.425V14.535H30.81V13.32H34.425V9.63H35.685ZM40.4061 19.5L45.5961 9.645H40.3161V8.34H47.7261L41.8911 19.5H40.4061Z" fill="#EDF8EC" style="fill:#EDF8EC;fill:color(display-p3 0.9294 0.9725 0.9255);fill-opacity:1;"/>
</svg>
