<svg width="61" height="28" viewBox="0 0 61 28" fill="none" xmlns="http://www.w3.org/2000/svg">
<rect width="61" height="28" rx="14" fill="#64370F" style="fill:#64370F;fill:color(display-p3 0.3922 0.2157 0.0588);fill-opacity:1;"/>
<path d="M15 6.375C15.4395 6.375 15.8203 6.60938 16.0254 6.99023L22.3535 18.709C22.5586 19.0605 22.5586 19.5 22.3242 19.8809C22.1191 20.2324 21.7383 20.4375 21.3281 20.4375H8.67188C8.26172 20.4375 7.88086 20.2324 7.67578 19.8809C7.44141 19.5 7.44141 19.0605 7.64648 18.709L13.9746 6.99023C14.1797 6.60938 14.5605 6.375 15 6.375ZM15 16.6875C14.4727 16.6875 14.0625 17.0977 14.0625 17.625C14.0625 18.1523 14.4727 18.5625 15 18.5625C15.5273 18.5625 15.9375 18.1523 15.9375 17.625C15.9375 17.0977 15.5273 16.6875 15 16.6875ZM15 11.0625C14.4727 11.0625 14.0332 11.5312 14.0918 12.0586L14.2969 15.1055C14.3262 15.457 14.6191 15.75 15 15.75C15.3809 15.75 15.6738 15.457 15.7031 15.1055L15.9082 12.0586C15.9668 11.5312 15.5273 11.0625 15 11.0625Z" fill="#FAA978" style="fill:#FAA978;fill:color(display-p3 0.9804 0.6627 0.4706);fill-opacity:1;"/>
<path d="M35.685 9.63V13.32H39.39V14.535H35.685V18.24H34.425V14.535H30.81V13.32H34.425V9.63H35.685ZM47.4257 8.34V9.645H43.6007L42.9857 12.795C43.2857 12.69 43.7507 12.57 44.2007 12.57C46.6007 12.57 47.9207 14.295 47.9207 16.05C47.9207 17.85 46.7057 19.725 43.9457 19.725C42.8057 19.725 41.7557 19.335 40.9757 18.675V17.055C41.7257 17.925 42.8807 18.39 43.9307 18.39C45.5057 18.39 46.4957 17.43 46.4957 16.11C46.4957 14.76 45.5057 13.755 43.7957 13.755C42.9407 13.755 42.3257 14.01 41.7707 14.28L41.5907 14.13L42.5957 8.34H47.4257Z" fill="#EDF8EC" style="fill:#EDF8EC;fill:color(display-p3 0.9294 0.9725 0.9255);fill-opacity:1;"/>
</svg>
