<svg width="16" height="18" viewBox="0 0 16 18" fill="none" xmlns="http://www.w3.org/2000/svg">
<path d="M2.25 1.125V1.89844L4.60547 1.19531C5.97656 0.808594 7.45312 0.914062 8.75391 1.54688C10.3359 2.35547 12.1992 2.35547 13.7461 1.54688L14.168 1.33594C14.9062 0.984375 15.75 1.51172 15.75 2.32031V11.0391C15.75 11.4961 15.4688 11.918 15.0117 12.0938L13.7109 12.5859C12.1289 13.1836 10.4062 13.0781 8.89453 12.3398C7.52344 11.6367 5.94141 11.4961 4.46484 11.9531L2.25 12.5859V16.875C2.25 17.5078 1.75781 18 1.125 18C0.492188 18 0 17.5078 0 16.875V1.125C0 0.492188 0.492188 0 1.125 0C1.75781 0 2.25 0.492188 2.25 1.125Z" fill="#ABDEED" style="fill:#ABDEED;fill:color(display-p3 0.6706 0.8706 0.9294);fill-opacity:1;"/>
</svg>
