<svg width="12" height="17" viewBox="0 0 12 17" fill="none" xmlns="http://www.w3.org/2000/svg">
<path d="M6.71875 0.375L10.7188 4.375C11.0938 4.78125 11.0938 5.40625 10.7188 5.8125C10.3125 6.1875 9.6875 6.1875 9.28125 5.8125L7 3.5V11.0938C7 11.6562 6.5625 12.0938 6 12.0938C5.4375 12.0938 5 11.6562 5 11.0938V3.5L2.71875 5.8125C2.3125 6.1875 1.6875 6.1875 1.28125 5.8125C0.90625 5.40625 0.90625 4.78125 1.28125 4.375L5.28125 0.375C5.6875 0 6.3125 0 6.71875 0.375ZM1 14.0938H11C11.5625 14.0938 12 14.5312 12 15.0938C12 15.6562 11.5625 16.0938 11 16.0938H1C0.4375 16.0938 0 15.6562 0 15.0938C0 14.5312 0.4375 14.0938 1 14.0938Z" fill="#85CFE5" style="fill:#85CFE5;fill:color(display-p3 0.5216 0.8118 0.8980);fill-opacity:1;"/>
</svg>
