<svg width="24" height="24" viewBox="0 0 24 24" fill="none" xmlns="http://www.w3.org/2000/svg">
<path d="M23.6401 14.9031C22.0374 21.3317 15.5259 25.2437 9.09649 23.641C2.67011 22.0382 -1.24226 15.5267 0.360865 9.09847C1.96286 2.6691 8.47399 -1.24365 14.9015 0.359098C21.3305 1.96185 25.2425 8.4741 23.6397 14.9031H23.6401Z" fill="#FF7E30" style="fill:#FF7E30;fill:color(display-p3 1.0000 0.4941 0.1882);fill-opacity:1;"/>
<path d="M12.8851 4.91821L12.3978 6.87134C12.7232 6.94561 13.051 7.0204 13.3694 7.09985L13.8528 5.15942L15.0667 5.46118L14.5696 7.45435C16.0054 7.94892 17.0798 8.67504 17.0276 9.97583L17.0013 10.2444C16.842 11.3211 16.2449 11.8421 15.4525 12.0256C16.5407 12.5926 17.0941 13.4618 16.5667 14.968C15.9127 16.8385 14.3568 16.9971 12.2884 16.6057L11.7864 18.6174L10.5726 18.3147L11.0687 16.3303C10.7543 16.2522 10.4325 16.1692 10.1019 16.0793L9.6048 18.0735L8.39288 17.7708L8.89484 15.7551C8.61189 15.6826 8.32423 15.6051 8.03058 15.5315L6.45148 15.1379L7.05402 13.7493C7.07244 13.7542 7.94782 13.9864 7.93585 13.969C8.27907 14.0538 8.43142 13.8301 8.49152 13.6809L9.28546 10.5012L9.41241 10.5325C9.3642 10.5132 9.32021 10.501 9.28644 10.4924L9.85284 8.22192C9.86805 7.96418 9.77872 7.63852 9.28741 7.51587C9.28594 7.49909 8.41978 7.30015 8.40656 7.29712L8.72882 6.00122L10.4017 6.41919L10.4007 6.42603C10.6521 6.48854 10.9112 6.54757 11.1751 6.60767L11.6722 4.61548L12.8851 4.91821ZM10.4954 14.6184C11.2924 14.8166 13.6973 15.5868 14.1878 14.2649L14.2298 14.1311C14.6206 12.5601 11.9837 12.1537 11.1614 11.9485L10.4954 14.6184ZM11.4661 10.7258C12.1513 10.8965 14.2627 11.5922 14.6048 10.2219C14.9607 8.79298 12.7547 8.47462 12.0696 8.30396L11.4661 10.7258Z" fill="white" style="fill:white;fill-opacity:1;"/>
</svg>
