<svg width="18" height="18" viewBox="0 0 18 18" fill="none" xmlns="http://www.w3.org/2000/svg">
<path d="M9 0C13.957 0 18 4.04297 18 9C18 13.957 13.957 18 9 18C4.04297 18 0 13.957 0 9C0 4.04297 4.04297 0 9 0ZM8.15625 4.21875V9C8.15625 9.28125 8.29688 9.5625 8.54297 9.70312L11.918 11.9531C12.3047 12.1992 12.832 12.0938 13.0781 11.707C13.3242 11.3203 13.2188 10.793 12.832 10.5469L9.84375 8.54297V4.21875C9.84375 3.76172 9.45703 3.375 9 3.375C8.54297 3.375 8.15625 3.76172 8.15625 4.21875Z" fill="#ABDEED" style="fill:#ABDEED;fill:color(display-p3 0.6706 0.8706 0.9294);fill-opacity:1;"/>
</svg>
