<svg width="14" height="16" viewBox="0 0 14 16" fill="none" xmlns="http://www.w3.org/2000/svg">
<path d="M6 0H10.1875C10.7188 0 11.2188 0.1875 11.5938 0.5625L13.375 2.28125C13.7812 2.65625 14 3.1875 14 3.71875V10C14 11.0938 13.0938 12 12 12H6C4.90625 12 4 11.0938 4 10V2C4 0.90625 4.90625 0 6 0ZM2 4H2.5V6H2V14H8V13.5H10V14C10 15.0938 9.09375 16 8 16H2C0.90625 16 0 15.0938 0 14V6C0 4.90625 0.90625 4 2 4Z" fill="#85CFE5" style="fill:#85CFE5;fill:color(display-p3 0.5216 0.8118 0.8980);fill-opacity:1;"/>
</svg>
