<svg width="18" height="18" viewBox="0 0 18 18" fill="none" xmlns="http://www.w3.org/2000/svg">
<path d="M0 9C0 4.04297 4.04297 0 9 0C13.957 0 18 4.04297 18 9C18 13.957 13.957 18 9 18C4.04297 18 0 13.957 0 9ZM11.25 12.375C11.25 11.8125 11.0391 11.2852 10.6875 10.8984L13.1484 6.01172C13.3242 5.58984 13.1836 5.09766 12.7617 4.88672C12.3398 4.67578 11.8477 4.85156 11.6367 5.23828L9.17578 10.125C9.10547 10.125 9.07031 10.125 9 10.125C7.76953 10.125 6.75 11.1445 6.75 12.375C6.75 13.6055 7.76953 14.625 9 14.625C10.2305 14.625 11.25 13.6055 11.25 12.375Z" fill="#ABDEED" style="fill:#ABDEED;fill:color(display-p3 0.6706 0.8706 0.9294);fill-opacity:1;"/>
</svg>
