<svg width="94" height="24" viewBox="0 0 94 24" fill="none" xmlns="http://www.w3.org/2000/svg">
<rect width="94" height="24" rx="12" fill="#560407" style="fill:#560407;fill:color(display-p3 0.3373 0.0157 0.0275);fill-opacity:1;"/>
<path d="M15.625 5.1875C16.3359 5.1875 16.9922 5.57031 17.3203 6.17188L19.9727 10.7656C20.3008 11.3672 20.3008 12.1328 19.9727 12.7344L17.3203 17.3281C16.9922 17.9297 16.3359 18.3125 15.625 18.3125H10.375C9.66406 18.3125 9.03516 17.9297 8.67969 17.3281L6.05469 12.7344C5.69922 12.1328 5.69922 11.3672 6.05469 10.7656L8.67969 6.17188C9.03516 5.57031 9.66406 5.1875 10.375 5.1875H15.625ZM13 13.5C12.5078 13.5 12.125 13.8828 12.125 14.375C12.125 14.8672 12.5078 15.25 13 15.25C13.4922 15.25 13.875 14.8672 13.875 14.375C13.875 13.8828 13.4922 13.5 13 13.5ZM13 8.25C12.5078 8.25 12.0977 8.6875 12.1523 9.17969L12.3438 12.0234C12.3711 12.3516 12.6445 12.625 13 12.625C13.3555 12.625 13.6289 12.3516 13.6562 12.0234L13.8477 9.17969C13.9023 8.6875 13.4922 8.25 13 8.25Z" fill="#F7787C" style="fill:#F7787C;fill:color(display-p3 0.9686 0.4706 0.4863);fill-opacity:1;"/>
<path d="M29.326 16.5V6.828H34.63V7.959H30.535V11.04H34.331V12.106H30.535V15.382H34.63V16.5H29.326ZM38.8176 9.311C39.6236 9.311 40.4426 9.545 40.9366 9.922V11.105C40.4296 10.676 39.6626 10.377 38.8306 10.377C37.9466 10.377 37.4526 10.754 37.4526 11.326C37.4526 11.95 38.0636 12.184 39.0126 12.457C40.0916 12.769 41.3136 13.12 41.3136 14.537C41.3136 15.824 40.3126 16.656 38.6876 16.656C37.7776 16.656 36.9066 16.396 36.2566 15.876V14.589C36.8026 15.148 37.6346 15.59 38.6486 15.59C39.5976 15.59 40.1436 15.174 40.1436 14.55C40.1436 13.874 39.4806 13.653 38.4666 13.341C37.3096 12.99 36.2826 12.613 36.2826 11.378C36.2826 10.195 37.2576 9.311 38.8176 9.311ZM43.7728 12.977C43.7728 14.589 44.9428 15.538 46.1908 15.538C46.7758 15.538 47.4778 15.421 48.0628 14.966V16.175C47.5428 16.474 46.8798 16.656 46.1128 16.656C44.0848 16.656 42.5638 15.083 42.5638 12.977C42.5638 10.897 44.0848 9.311 46.1128 9.311C46.8408 9.311 47.5038 9.454 48.0628 9.805V11.027C47.4778 10.598 46.9058 10.429 46.1778 10.429C44.9428 10.429 43.7728 11.391 43.7728 12.977ZM52.4649 16.656C50.8139 16.656 49.2669 15.213 49.2669 12.99C49.2669 10.741 50.8139 9.311 52.4649 9.311C53.4789 9.311 54.4409 9.818 54.9739 10.767L55.1169 9.467H56.0919V16.5H55.1169L54.9739 15.213C54.4409 16.162 53.4789 16.656 52.4649 16.656ZM52.7119 15.538C53.9469 15.538 54.9349 14.498 54.9349 12.977C54.9349 11.469 53.9469 10.429 52.7119 10.429C51.4509 10.429 50.4759 11.469 50.4759 12.99C50.4759 14.498 51.4509 15.538 52.7119 15.538ZM58.3045 16.5V6.1H59.5005V16.5H58.3045ZM64.4493 16.656C62.7983 16.656 61.2513 15.213 61.2513 12.99C61.2513 10.741 62.7983 9.311 64.4493 9.311C65.4633 9.311 66.4253 9.818 66.9583 10.767L67.1013 9.467H68.0763V16.5H67.1013L66.9583 15.213C66.4253 16.162 65.4633 16.656 64.4493 16.656ZM64.6963 15.538C65.9313 15.538 66.9193 14.498 66.9193 12.977C66.9193 11.469 65.9313 10.429 64.6963 10.429C63.4353 10.429 62.4603 11.469 62.4603 12.99C62.4603 14.498 63.4353 15.538 64.6963 15.538ZM71.7319 7.816V9.467H73.7469V10.507H71.7319V13.991C71.7319 15.083 72.3819 15.538 73.2789 15.538C73.4739 15.538 73.6819 15.512 73.9029 15.473V16.513C73.7729 16.539 73.4609 16.591 73.0709 16.591C71.5499 16.591 70.5619 15.681 70.5619 14.043V10.507H69.5089V9.467H70.5879V7.816H71.7319ZM81.2449 12.847C81.2449 13.055 81.2319 13.224 81.2059 13.38H75.9929C76.1619 14.771 77.1499 15.616 78.4759 15.616C79.2819 15.616 80.1139 15.317 80.8419 14.693V15.876C80.1269 16.396 79.2949 16.656 78.3849 16.656C76.2009 16.656 74.8229 15.187 74.8229 13.016C74.8229 10.741 76.3959 9.311 78.2159 9.311C79.8799 9.311 81.2449 10.533 81.2449 12.847ZM75.9929 12.483H80.0879C80.0619 11.027 79.1649 10.351 78.2029 10.351C77.1239 10.351 76.1749 11.17 75.9929 12.483Z" fill="#EDF8EC" style="fill:#EDF8EC;fill:color(display-p3 0.9294 0.9725 0.9255);fill-opacity:1;"/>
</svg>
