<svg width="19" height="17" viewBox="0 0 19 17" fill="none" xmlns="http://www.w3.org/2000/svg">
<path d="M12.7617 0C13.6758 0 14.5195 0.492188 14.9414 1.26562L18.3516 7.17188C18.7734 7.94531 18.7734 8.92969 18.3516 9.70312L14.9414 15.6094C14.5195 16.3828 13.6758 16.875 12.7617 16.875H6.01172C5.09766 16.875 4.28906 16.3828 3.83203 15.6094L0.457031 9.70312C0 8.92969 0 7.94531 0.457031 7.17188L3.83203 1.26562C4.28906 0.492188 5.09766 0 6.01172 0H12.7617ZM9.38672 10.6875C8.75391 10.6875 8.26172 11.1797 8.26172 11.8125C8.26172 12.4453 8.75391 12.9375 9.38672 12.9375C10.0195 12.9375 10.5117 12.4453 10.5117 11.8125C10.5117 11.1797 10.0195 10.6875 9.38672 10.6875ZM9.38672 3.9375C8.75391 3.9375 8.22656 4.5 8.29688 5.13281L8.54297 8.78906C8.57812 9.21094 8.92969 9.5625 9.38672 9.5625C9.84375 9.5625 10.1953 9.21094 10.2305 8.78906L10.4766 5.13281C10.5469 4.5 10.0195 3.9375 9.38672 3.9375Z" fill="#F7787C" style="fill:#F7787C;fill:color(display-p3 0.9686 0.4706 0.4863);fill-opacity:1;"/>
</svg>
