<svg width="24" height="24" viewBox="0 0 24 24" fill="none" xmlns="http://www.w3.org/2000/svg">
<mask id="path-1-inside-1_565_1006" fill="white">
<path d="M23.9999 11.9999C23.9999 18.6274 18.6274 24 12 24C5.37255 24 0 18.6274 0 11.9999C0 5.37255 5.37255 0 12 0C18.6273 0 23.9999 5.37255 23.9999 11.9999Z"/>
</mask>
<path d="M23.9999 11.9999C23.9999 18.6274 18.6274 24 12 24C5.37255 24 0 18.6274 0 11.9999C0 5.37255 5.37255 0 12 0C18.6273 0 23.9999 5.37255 23.9999 11.9999Z" fill="#151C2F" style="fill:#151C2F;fill:color(display-p3 0.0824 0.1098 0.1843);fill-opacity:1;"/>
<path d="M12 24V23V24ZM23.9999 11.9999H22.9999C22.9999 18.0751 18.0751 23 12 23V24V25C19.1797 25 24.9999 19.1796 24.9999 11.9999H23.9999ZM12 24V23C5.92484 23 1 18.0751 1 11.9999H0H-1C-1 19.1797 4.82026 25 12 25V24ZM0 11.9999H1C1 5.92484 5.92483 1 12 1V0V-1C4.82027 -1 -1 4.82026 -1 11.9999H0ZM12 0V1C18.075 1 22.9999 5.92483 22.9999 11.9999H23.9999H24.9999C24.9999 4.82027 19.1796 -1 12 -1V0Z" fill="#627EEA" fill-opacity="0.5" style="fill:#627EEA;fill:color(display-p3 0.3843 0.4941 0.9176);fill-opacity:0.5;" mask="url(#path-1-inside-1_565_1006)"/>
<path fill-rule="evenodd" clip-rule="evenodd" d="M17.6198 13.0932L12.1104 20.4001V16.2978L17.6198 13.0932Z" fill="#C8B2F5" stroke="#3441C0" style="fill:#C8B2F5;fill:color(display-p3 0.7843 0.6980 0.9608);fill-opacity:1;stroke:#3441C0;stroke:color(display-p3 0.2039 0.2549 0.7529);stroke-opacity:1;" stroke-width="0.3" stroke-miterlimit="7" stroke-linecap="round" stroke-linejoin="round"/>
<path fill-rule="evenodd" clip-rule="evenodd" d="M6.60135 13.0932L12.1108 20.4001V16.2978L6.60135 13.0932Z" fill="#EECBC0" stroke="#3441C0" style="fill:#EECBC0;fill:color(display-p3 0.9333 0.7961 0.7529);fill-opacity:1;stroke:#3441C0;stroke:color(display-p3 0.2039 0.2549 0.7529);stroke-opacity:1;" stroke-width="0.3" stroke-miterlimit="7" stroke-linecap="round" stroke-linejoin="round"/>
<path fill-rule="evenodd" clip-rule="evenodd" d="M6.60007 12.2463L12.1105 9.79614V15.3816L6.60007 12.2463Z" fill="#87A9F0" stroke="#3441C0" style="fill:#87A9F0;fill:color(display-p3 0.5294 0.6627 0.9412);fill-opacity:1;stroke:#3441C0;stroke:color(display-p3 0.2039 0.2549 0.7529);stroke-opacity:1;" stroke-width="0.3" stroke-miterlimit="7" stroke-linecap="round" stroke-linejoin="round"/>
<path fill-rule="evenodd" clip-rule="evenodd" d="M17.6208 12.2463L12.1103 9.79614V15.3816L17.6208 12.2463Z" fill="#CAB3F5" stroke="#3441C0" style="fill:#CAB3F5;fill:color(display-p3 0.7922 0.7020 0.9608);fill-opacity:1;stroke:#3441C0;stroke:color(display-p3 0.2039 0.2549 0.7529);stroke-opacity:1;" stroke-width="0.3" stroke-miterlimit="7" stroke-linecap="round" stroke-linejoin="round"/>
<path fill-rule="evenodd" clip-rule="evenodd" d="M6.60141 12.2462L12.1108 3.6001V9.79611L6.60141 12.2462Z" fill="#EECBC0" stroke="#3441C0" style="fill:#EECBC0;fill:color(display-p3 0.9333 0.7961 0.7529);fill-opacity:1;stroke:#3441C0;stroke:color(display-p3 0.2039 0.2549 0.7529);stroke-opacity:1;" stroke-width="0.3" stroke-miterlimit="7" stroke-linecap="round" stroke-linejoin="round"/>
<path fill-rule="evenodd" clip-rule="evenodd" d="M17.6198 12.2462L12.1104 3.6001V9.79611L17.6198 12.2462Z" fill="#B8FBF6" stroke="#3441C0" style="fill:#B8FBF6;fill:color(display-p3 0.7216 0.9843 0.9647);fill-opacity:1;stroke:#3441C0;stroke:color(display-p3 0.2039 0.2549 0.7529);stroke-opacity:1;" stroke-width="0.3" stroke-miterlimit="7" stroke-linecap="round" stroke-linejoin="round"/>
</svg>
