<svg width="16" height="16" viewBox="0 0 16 16" fill="none" xmlns="http://www.w3.org/2000/svg">
<path d="M10 0H15C15.5625 0 16 0.4375 16 1V6C16 6.5625 15.5625 7 15 7C14.4375 7 14 6.5625 14 6V3.40625L7.71875 9.71875C7.3125 10.0938 6.6875 10.0938 6.28125 9.71875C5.90625 9.3125 5.90625 8.6875 6.28125 8.28125L12.5938 2H10C9.4375 2 9 1.5625 9 1C9 0.4375 9.4375 0 10 0ZM2.5 3H5C5.5625 3 6 3.4375 6 4C6 4.5625 5.5625 5 5 5H2.5C2.21875 5 2 5.21875 2 5.5V13.5C2 13.7812 2.21875 14 2.5 14H10.5C10.7812 14 11 13.7812 11 13.5V11C11 10.4375 11.4375 10 12 10C12.5625 10 13 10.4375 13 11V13.5C13 14.875 11.875 16 10.5 16H2.5C1.125 16 0 14.875 0 13.5V5.5C0 4.125 1.125 3 2.5 3Z" fill="#85CFE5" style="fill:#85CFE5;fill:color(display-p3 0.5216 0.8118 0.8980);fill-opacity:1;"/>
</svg>
