<svg width="16" height="13" viewBox="0 0 16 13" fill="none" xmlns="http://www.w3.org/2000/svg">
<path d="M7.90234 0C10.1172 0 11.8945 1.01172 13.1797 2.21484C14.4375 3.39062 15.3125 4.8125 15.7227 5.79688C15.8047 6.01562 15.8047 6.23438 15.7227 6.45312C15.3125 7.4375 14.4375 8.85938 13.1797 10.0352C11.8945 11.2383 10.1172 12.25 7.90234 12.25C5.6875 12.25 3.9375 11.2383 2.625 10.0352C1.36719 8.85938 0.492188 7.4375 0.0820312 6.45312C0 6.23438 0 6.01562 0.0820312 5.79688C0.492188 4.8125 1.36719 3.39062 2.625 2.21484C3.9375 1.01172 5.6875 0 7.90234 0ZM3.96484 6.125C3.96484 8.3125 5.71484 10.0625 7.90234 10.0625C10.0898 10.0625 11.8398 8.3125 11.8398 6.125C11.8398 3.9375 10.0898 2.1875 7.90234 2.1875C5.71484 2.1875 3.96484 3.9375 3.96484 6.125ZM7.90234 4.375C7.90234 4.04688 7.82031 3.77344 7.68359 3.5C8.91406 3.39062 10.1172 4.18359 10.4453 5.44141C10.8008 6.83594 9.98047 8.28516 8.58594 8.66797C7.19141 9.02344 5.74219 8.20312 5.35938 6.80859C5.27734 6.50781 5.25 6.20703 5.27734 5.90625C5.55078 6.04297 5.85156 6.125 6.15234 6.125C7.10938 6.125 7.90234 5.33203 7.90234 4.375Z" fill="#A9B1C0" style="fill:#A9B1C0;fill:color(display-p3 0.6627 0.6941 0.7529);fill-opacity:1;"/>
</svg>
