<svg width="19" height="14" viewBox="0 0 19 14" fill="none" xmlns="http://www.w3.org/2000/svg">
<path d="M9.03125 0C11.5625 0 13.5938 1.15625 15.0625 2.53125C16.5 3.875 17.5 5.5 17.9688 6.625C18.0625 6.875 18.0625 7.125 17.9688 7.375C17.5 8.5 16.5 10.125 15.0625 11.4688C13.5938 12.8438 11.5625 14 9.03125 14C6.5 14 4.5 12.8438 3 11.4688C1.5625 10.125 0.5625 8.5 0.09375 7.375C0 7.125 0 6.875 0.09375 6.625C0.5625 5.5 1.5625 3.875 3 2.53125C4.5 1.15625 6.5 0 9.03125 0ZM4.53125 7C4.53125 9.5 6.53125 11.5 9.03125 11.5C11.5312 11.5 13.5312 9.5 13.5312 7C13.5312 4.5 11.5312 2.5 9.03125 2.5C6.53125 2.5 4.53125 4.5 4.53125 7ZM9.03125 5C9.03125 4.625 8.9375 4.3125 8.78125 4C10.1875 3.875 11.5625 4.78125 11.9375 6.21875C12.3438 7.8125 11.4062 9.46875 9.8125 9.90625C8.21875 10.3125 6.5625 9.375 6.125 7.78125C6.03125 7.4375 6 7.09375 6.03125 6.75C6.34375 6.90625 6.6875 7 7.03125 7C8.125 7 9.03125 6.09375 9.03125 5Z" fill="#85CFE5" style="fill:#85CFE5;fill:color(display-p3 0.5216 0.8118 0.8980);fill-opacity:1;"/>
</svg>
