<svg width="79" height="24" viewBox="0 0 79 24" fill="none" xmlns="http://www.w3.org/2000/svg">
<rect width="79" height="24" rx="12" fill="#560407" style="fill:#560407;fill:color(display-p3 0.3373 0.0157 0.0275);fill-opacity:1;"/>
<path d="M15.625 5.1875C16.3359 5.1875 16.9922 5.57031 17.3203 6.17188L19.9727 10.7656C20.3008 11.3672 20.3008 12.1328 19.9727 12.7344L17.3203 17.3281C16.9922 17.9297 16.3359 18.3125 15.625 18.3125H10.375C9.66406 18.3125 9.03516 17.9297 8.67969 17.3281L6.05469 12.7344C5.69922 12.1328 5.69922 11.3672 6.05469 10.7656L8.67969 6.17188C9.03516 5.57031 9.66406 5.1875 10.375 5.1875H15.625ZM13 13.5C12.5078 13.5 12.125 13.8828 12.125 14.375C12.125 14.8672 12.5078 15.25 13 15.25C13.4922 15.25 13.875 14.8672 13.875 14.375C13.875 13.8828 13.4922 13.5 13 13.5ZM13 8.25C12.5078 8.25 12.0977 8.6875 12.1523 9.17969L12.3438 12.0234C12.3711 12.3516 12.6445 12.625 13 12.625C13.3555 12.625 13.6289 12.3516 13.6562 12.0234L13.8477 9.17969C13.9023 8.6875 13.4922 8.25 13 8.25Z" fill="#F7787C" style="fill:#F7787C;fill:color(display-p3 0.9686 0.4706 0.4863);fill-opacity:1;"/>
<path d="M29.326 16.5V6.828H34.63V7.959H30.535V11.313H34.435V12.418H30.535V16.5H29.326ZM39.0586 16.656C37.4076 16.656 35.8606 15.213 35.8606 12.99C35.8606 10.741 37.4076 9.311 39.0586 9.311C40.0726 9.311 41.0346 9.818 41.5676 10.767L41.7106 9.467H42.6856V16.5H41.7106L41.5676 15.213C41.0346 16.162 40.0726 16.656 39.0586 16.656ZM39.3056 15.538C40.5406 15.538 41.5286 14.498 41.5286 12.977C41.5286 11.469 40.5406 10.429 39.3056 10.429C38.0446 10.429 37.0696 11.469 37.0696 12.99C37.0696 14.498 38.0446 15.538 39.3056 15.538ZM45.4963 7.855C45.0673 7.855 44.7553 7.543 44.7553 7.127C44.7553 6.711 45.0673 6.399 45.4963 6.399C45.9253 6.399 46.2373 6.711 46.2373 7.127C46.2373 7.543 45.9253 7.855 45.4963 7.855ZM44.8983 16.5V9.467H46.0943V16.5H44.8983ZM48.326 16.5V6.1H49.522V16.5H48.326ZM57.7077 12.847C57.7077 13.055 57.6947 13.224 57.6687 13.38H52.4557C52.6247 14.771 53.6127 15.616 54.9387 15.616C55.7447 15.616 56.5767 15.317 57.3047 14.693V15.876C56.5897 16.396 55.7577 16.656 54.8477 16.656C52.6637 16.656 51.2857 15.187 51.2857 13.016C51.2857 10.741 52.8587 9.311 54.6787 9.311C56.3427 9.311 57.7077 10.533 57.7077 12.847ZM52.4557 12.483H56.5507C56.5247 11.027 55.6277 10.351 54.6657 10.351C53.5867 10.351 52.6377 11.17 52.4557 12.483ZM62.1771 16.656C60.5261 16.656 58.9791 15.226 58.9791 12.99C58.9791 10.728 60.5131 9.311 62.1771 9.311C63.1521 9.311 64.1271 9.805 64.6081 10.689V6.1H65.8041V16.5H64.8291L64.6861 15.213C64.1531 16.162 63.1781 16.656 62.1771 16.656ZM62.4241 15.538C63.6591 15.538 64.6341 14.498 64.6341 12.977C64.6341 11.469 63.6591 10.429 62.4241 10.429C61.1631 10.429 60.1751 11.469 60.1751 12.99C60.1751 14.498 61.1631 15.538 62.4241 15.538Z" fill="#EDF8EC" style="fill:#EDF8EC;fill:color(display-p3 0.9294 0.9725 0.9255);fill-opacity:1;"/>
</svg>
