<svg width="14" height="17" viewBox="0 0 14 17" fill="none" xmlns="http://www.w3.org/2000/svg">
<path d="M4.28125 0.6875C4.40625 0.28125 4.78125 0 5.21875 0H8.78125C9.21875 0 9.59375 0.28125 9.71875 0.6875L10 1.5H13C13.5625 1.5 14 1.9375 14 2.5C14 3.0625 13.5625 3.5 13 3.5H1C0.4375 3.5 0 3.0625 0 2.5C0 1.9375 0.4375 1.5 1 1.5H4L4.28125 0.6875ZM13 5L12.3438 15.0938C12.2812 15.875 11.625 16.5 10.8438 16.5H3.15625C2.375 16.5 1.71875 15.875 1.65625 15.0938L1 5H13Z" fill="#85CFE5" style="fill:#85CFE5;fill:color(display-p3 0.5216 0.8118 0.8980);fill-opacity:1;"/>
</svg>
