<svg width="19" height="20" viewBox="0 0 19 20" fill="none" xmlns="http://www.w3.org/2000/svg">
<path d="M6.92578 0.914062C7.03125 0.386719 7.48828 0 8.01562 0H10.125C10.6523 0 11.1445 0.386719 11.25 0.914062L11.7422 3.375C12.2344 3.58594 12.6914 3.83203 13.1133 4.14844L15.5039 3.375C16.0312 3.19922 16.5586 3.41016 16.8398 3.86719L17.8945 5.69531C18.1406 6.15234 18.0703 6.75 17.6484 7.10156L15.7852 8.75391C15.8203 9.03516 15.8203 9.28125 15.8203 9.5625C15.8203 9.84375 15.8203 10.0898 15.7852 10.3711L17.6484 12.0234C18.0703 12.375 18.1406 12.9727 17.8945 13.4297L16.8398 15.2578C16.5586 15.7148 16.0312 15.9258 15.5039 15.75L13.1133 14.9766C12.6914 15.293 12.2344 15.5742 11.7422 15.7852L11.25 18.2461C11.1445 18.7383 10.6875 19.125 10.125 19.125H8.05078C7.48828 19.125 7.03125 18.7383 6.92578 18.2461L6.43359 15.7852C5.94141 15.5742 5.48438 15.293 5.0625 14.9766L2.67188 15.75C2.14453 15.9258 1.58203 15.7148 1.33594 15.2578L0.28125 13.4297C0 12.9727 0.105469 12.375 0.492188 12.0234L2.39062 10.3711C2.35547 10.0898 2.32031 9.84375 2.32031 9.5625C2.32031 9.28125 2.35547 9.03516 2.39062 8.75391L0.492188 7.10156C0.105469 6.75 0 6.15234 0.28125 5.69531L1.33594 3.86719C1.58203 3.41016 2.14453 3.19922 2.67188 3.375L5.02734 4.14844C5.44922 3.83203 5.94141 3.58594 6.43359 3.33984L6.92578 0.914062ZM9.07031 12.375C10.6172 12.375 11.8828 11.1094 11.8828 9.5625C11.8828 8.01562 10.6172 6.75 9.07031 6.75C7.52344 6.75 6.25781 8.01562 6.25781 9.5625C6.25781 11.1094 7.52344 12.375 9.07031 12.375Z" fill="#ABDEED" style="fill:#ABDEED;fill:color(display-p3 0.6706 0.8706 0.9294);fill-opacity:1;"/>
</svg>
