<svg width="19" height="19" viewBox="0 0 19 19" fill="none" xmlns="http://www.w3.org/2000/svg">
<path d="M14.625 7.3125C14.625 8.92969 14.0977 10.4062 13.2188 11.6367L17.6836 16.0664C18.1055 16.5234 18.1055 17.2266 17.6836 17.6836C17.2266 18.1055 16.5234 18.1055 16.0664 17.6836L11.6367 13.2188C10.4062 14.0977 8.92969 14.625 7.3125 14.625C3.26953 14.625 0 11.3555 0 7.3125C0 3.26953 3.26953 0 7.3125 0C11.3555 0 14.625 3.26953 14.625 7.3125ZM3.65625 7.59375V9.84375C3.65625 10.3008 4.04297 10.6875 4.5 10.6875C4.95703 10.6875 5.34375 10.3008 5.34375 9.84375V7.59375C5.34375 7.13672 4.95703 6.75 4.5 6.75C4.04297 6.75 3.65625 7.13672 3.65625 7.59375ZM6.46875 4.21875V9.84375C6.46875 10.3008 6.85547 10.6875 7.3125 10.6875C7.76953 10.6875 8.15625 10.3008 8.15625 9.84375V4.21875C8.15625 3.76172 7.76953 3.375 7.3125 3.375C6.85547 3.375 6.46875 3.76172 6.46875 4.21875ZM9.28125 6.46875V9.84375C9.28125 10.3008 9.66797 10.6875 10.125 10.6875C10.582 10.6875 10.9688 10.3008 10.9688 9.84375V6.46875C10.9688 6.01172 10.582 5.625 10.125 5.625C9.66797 5.625 9.28125 6.01172 9.28125 6.46875Z" fill="#A9B1C0" style="fill:#A9B1C0;fill:color(display-p3 0.6627 0.6941 0.7529);fill-opacity:1;"/>
</svg>
