<svg width="20" height="20" viewBox="0 0 20 20" fill="none" xmlns="http://www.w3.org/2000/svg">
<path d="M10 20C4.49219 20 0 15.5078 0 10C0 4.49219 4.49219 0 10 0C15.5078 0 20 4.49219 20 10C20 15.5078 15.5078 20 10 20ZM14.6094 5.70312C14.1797 5.39062 13.5938 5.46875 13.3203 5.89844L8.63281 12.3047L6.60156 10.2734C6.25 9.92188 5.625 9.92188 5.27344 10.2734C4.92188 10.6641 4.92188 11.25 5.27344 11.6016L8.08594 14.4141C8.28125 14.6094 8.55469 14.7266 8.82812 14.6875C9.10156 14.6875 9.33594 14.5312 9.49219 14.2969L14.8047 6.99219C15.1172 6.60156 15.0391 6.01562 14.6094 5.70312Z" fill="#4CB944" style="fill:#4CB944;fill:color(display-p3 0.2980 0.7255 0.2667);fill-opacity:1;"/>
</svg>
