<svg width="28" height="28" viewBox="0 0 28 28" fill="none" xmlns="http://www.w3.org/2000/svg">
<path d="M14 28C6.28906 28 0 21.7109 0 14C0 6.28906 6.28906 0 14 0C21.7109 0 28 6.28906 28 14C28 21.7109 21.7109 28 14 28ZM12.25 8.75C12.25 9.73438 13.0156 10.5 14 10.5C14.9844 10.5 15.75 9.73438 15.75 8.75C15.75 7.76562 14.9844 7 14 7C13.0156 7 12.25 7.76562 12.25 8.75ZM11.8125 12.25C11.1016 12.25 10.5 12.8516 10.5 13.5625C10.5 14.2734 11.1016 14.875 11.8125 14.875H13.125V18.375H11.8125C11.1016 18.375 10.5 18.9766 10.5 19.6875C10.5 20.3984 11.1016 21 11.8125 21H16.1875C16.8984 21 17.5 20.3984 17.5 19.6875C17.5 18.9766 16.8984 18.375 16.1875 18.375H15.75V13.5625C15.75 12.8516 15.1484 12.25 14.4375 12.25H11.8125Z" fill="#31AFD4" style="fill:#31AFD4;fill:color(display-p3 0.1922 0.6863 0.8314);fill-opacity:1;"/>
</svg>
