<svg width="110" height="24" viewBox="0 0 110 24" fill="none" xmlns="http://www.w3.org/2000/svg">
<rect width="110" height="24" rx="12" fill="#124554" style="fill:#124554;fill:color(display-p3 0.0706 0.2706 0.3294);fill-opacity:1;"/>
<path d="M13 4.75C16.8555 4.75 20 7.89453 20 11.75C20 15.6055 16.8555 18.75 13 18.75C9.14453 18.75 6 15.6055 6 11.75C6 7.89453 9.14453 4.75 13 4.75ZM12.3438 8.03125V11.75C12.3438 11.9688 12.4531 12.1875 12.6445 12.2969L15.2695 14.0469C15.5703 14.2383 15.9805 14.1562 16.1719 13.8555C16.3633 13.5547 16.2812 13.1445 15.9805 12.9531L13.6562 11.3945V8.03125C13.6562 7.67578 13.3555 7.375 13 7.375C12.6445 7.375 12.3438 7.67578 12.3438 8.03125Z" fill="#5ABEDD" style="fill:#5ABEDD;fill:color(display-p3 0.3529 0.7451 0.8667);fill-opacity:1;"/>
<path d="M29.326 16.5V6.828H30.535V16.5H29.326ZM36.2014 9.311C37.7224 9.311 38.7104 10.299 38.7104 11.846V16.5H37.5144V12.275C37.5144 11.04 36.9554 10.455 35.9024 10.455C34.9014 10.455 34.1474 11.183 34.1474 12.21V16.5H32.9514V9.467H33.8744L34.0044 10.533H34.0434C34.4464 9.883 35.2004 9.311 36.2014 9.311ZM44.6112 16.5V6.828H46.9772C49.2652 6.828 50.7602 7.998 50.7602 9.974C50.7602 11.937 49.3042 13.224 47.0162 13.224H45.8202V16.5H44.6112ZM47.0812 12.106C48.5892 12.106 49.5382 11.326 49.5382 10C49.5382 8.687 48.5892 7.959 47.0812 7.959H45.8202V12.106H47.0812ZM52.3371 16.5V9.467H53.2861L53.4161 10.585H53.4291C53.9101 9.675 54.8201 9.389 55.4441 9.389C55.6261 9.389 55.7691 9.402 55.9121 9.428V10.572C55.7561 10.546 55.5871 10.52 55.4181 10.52C54.4821 10.52 53.5331 11.118 53.5331 12.496V16.5H52.3371ZM60.0386 16.656C58.0366 16.656 56.5286 15.109 56.5286 12.99C56.5286 10.871 58.0366 9.311 60.0386 9.311C62.0276 9.311 63.5226 10.871 63.5226 12.99C63.5226 15.096 62.0276 16.656 60.0386 16.656ZM60.0386 15.538C61.2086 15.538 62.3266 14.602 62.3266 12.99C62.3266 11.365 61.2086 10.429 60.0386 10.429C58.8556 10.429 57.7376 11.365 57.7376 12.99C57.7376 14.615 58.8556 15.538 60.0386 15.538ZM68.0039 9.324C69.0049 9.324 69.9669 9.805 70.4999 10.689L70.6429 9.467H71.6179V15.928C71.6179 18.203 69.9929 19.386 68.1599 19.386C67.2109 19.386 66.2619 19.061 65.5339 18.515V17.228C66.2619 17.891 67.1719 18.268 68.1079 18.268C69.3689 18.268 70.4219 17.423 70.4219 16.123V15.057C69.9019 15.876 68.9919 16.383 68.0039 16.383C66.3399 16.383 64.8059 14.966 64.8059 12.86C64.8059 10.767 66.3529 9.324 68.0039 9.324ZM68.2379 10.429C66.9899 10.429 66.0149 11.469 66.0149 12.873C66.0149 14.251 66.9899 15.291 68.2379 15.291C69.4859 15.291 70.4609 14.238 70.4609 12.821C70.4609 11.43 69.4859 10.429 68.2379 10.429ZM73.8049 16.5V9.467H74.7539L74.8839 10.585H74.8969C75.3779 9.675 76.2879 9.389 76.9119 9.389C77.0939 9.389 77.2369 9.402 77.3799 9.428V10.572C77.2239 10.546 77.0549 10.52 76.8859 10.52C75.9499 10.52 75.0009 11.118 75.0009 12.496V16.5H73.8049ZM84.4314 12.847C84.4314 13.055 84.4184 13.224 84.3924 13.38H79.1794C79.3484 14.771 80.3364 15.616 81.6624 15.616C82.4684 15.616 83.3004 15.317 84.0284 14.693V15.876C83.3134 16.396 82.4814 16.656 81.5714 16.656C79.3874 16.656 78.0094 15.187 78.0094 13.016C78.0094 10.741 79.5824 9.311 81.4024 9.311C83.0664 9.311 84.4314 10.533 84.4314 12.847ZM79.1794 12.483H83.2744C83.2484 11.027 82.3514 10.351 81.3894 10.351C80.3104 10.351 79.3614 11.17 79.1794 12.483ZM88.3547 9.311C89.1607 9.311 89.9797 9.545 90.4737 9.922V11.105C89.9667 10.676 89.1997 10.377 88.3677 10.377C87.4837 10.377 86.9897 10.754 86.9897 11.326C86.9897 11.95 87.6007 12.184 88.5497 12.457C89.6287 12.769 90.8507 13.12 90.8507 14.537C90.8507 15.824 89.8497 16.656 88.2247 16.656C87.3147 16.656 86.4437 16.396 85.7937 15.876V14.589C86.3397 15.148 87.1717 15.59 88.1857 15.59C89.1347 15.59 89.6807 15.174 89.6807 14.55C89.6807 13.874 89.0177 13.653 88.0037 13.341C86.8467 12.99 85.8197 12.613 85.8197 11.378C85.8197 10.195 86.7947 9.311 88.3547 9.311ZM94.7659 9.311C95.5719 9.311 96.3909 9.545 96.8849 9.922V11.105C96.3779 10.676 95.6109 10.377 94.7789 10.377C93.8949 10.377 93.4009 10.754 93.4009 11.326C93.4009 11.95 94.0119 12.184 94.9609 12.457C96.0399 12.769 97.2619 13.12 97.2619 14.537C97.2619 15.824 96.2609 16.656 94.6359 16.656C93.7259 16.656 92.8549 16.396 92.2049 15.876V14.589C92.7509 15.148 93.5829 15.59 94.5969 15.59C95.5459 15.59 96.0919 15.174 96.0919 14.55C96.0919 13.874 95.4289 13.653 94.4149 13.341C93.2579 12.99 92.2309 12.613 92.2309 11.378C92.2309 10.195 93.2059 9.311 94.7659 9.311Z" fill="#EDF8EC" style="fill:#EDF8EC;fill:color(display-p3 0.9294 0.9725 0.9255);fill-opacity:1;"/>
</svg>
