<svg width="23" height="14" viewBox="0 0 23 14" fill="none" xmlns="http://www.w3.org/2000/svg">
<path d="M0 1.125C0 0.492188 0.492188 0 1.125 0C1.75781 0 2.25 0.492188 2.25 1.125V12.375C2.25 13.0078 1.75781 13.5 1.125 13.5C0.492188 13.5 0 13.0078 0 12.375V1.125ZM4.81641 7.55859C4.39453 7.10156 4.39453 6.39844 4.81641 5.94141L9.31641 1.44141C9.66797 1.125 10.125 1.01953 10.5469 1.19531C10.9688 1.37109 11.25 1.79297 11.25 2.25V4.5H20.8125C21.7617 4.5 22.5 5.27344 22.5 6.1875V7.3125C22.5 8.26172 21.7617 9 20.8125 9H11.25V11.25C11.25 11.707 10.9688 12.1289 10.5469 12.3047C10.125 12.4805 9.66797 12.375 9.31641 12.0586L4.81641 7.55859Z" fill="#A9B1C0" style="fill:#A9B1C0;fill:color(display-p3 0.6627 0.6941 0.7529);fill-opacity:1;"/>
</svg>
