<svg width="19" height="14" viewBox="0 0 19 14" fill="none" xmlns="http://www.w3.org/2000/svg">
<path d="M1.125 0C1.75781 0 2.25 0.492188 2.25 1.125V12.375C2.25 13.0078 1.75781 13.5 1.125 13.5C0.492188 13.5 0 13.0078 0 12.375V1.125C0 0.492188 0.492188 0 1.125 0ZM17.7539 6.15234C18.0703 6.46875 18.0703 7.03125 17.7539 7.34766L12.6914 12.4102C12.4453 12.6562 12.0938 12.7266 11.7773 12.5859C11.4609 12.4805 11.25 12.1641 11.25 11.8125V9H6.1875C5.27344 9 4.5 8.26172 4.5 7.3125V6.1875C4.5 5.27344 5.27344 4.5 6.1875 4.5H11.25V1.6875C11.25 1.33594 11.4609 1.05469 11.7773 0.914062C12.0938 0.773438 12.4453 0.84375 12.6914 1.08984L17.7539 6.15234Z" fill="#A9B1C0" style="fill:#A9B1C0;fill:color(display-p3 0.6627 0.6941 0.7529);fill-opacity:1;"/>
</svg>
