<svg width="18" height="18" viewBox="0 0 18 18" fill="none" xmlns="http://www.w3.org/2000/svg">
<path d="M12.9023 14.5195L3.51562 5.09766C2.70703 6.1875 2.25 7.55859 2.25 9C2.25 12.7266 5.27344 15.75 9 15.75C10.4766 15.75 11.8125 15.293 12.9023 14.5195ZM14.5195 12.9023C15.293 11.8125 15.75 10.4414 15.75 9C15.75 5.27344 12.7266 2.25 9 2.25C7.55859 2.25 6.1875 2.70703 5.09766 3.51562L14.5195 12.9023ZM0 9C0 4.04297 4.04297 0 9 0C13.957 0 18 4.04297 18 9C18 13.957 13.957 18 9 18C4.04297 18 0 13.957 0 9Z" fill="#A9B1C0" style="fill:#A9B1C0;fill:color(display-p3 0.6627 0.6941 0.7529);fill-opacity:1;"/>
</svg>
