<svg width="17" height="17" viewBox="0 0 17 17" fill="none" xmlns="http://www.w3.org/2000/svg">
<path d="M11.0625 0.65625C11.4688 0.25 12.0625 0 12.6562 0C13.25 0 13.8438 0.25 14.25 0.65625L15.375 1.78125C15.7812 2.1875 16.0312 2.78125 16.0312 3.375C16.0312 3.96875 15.7812 4.5625 15.375 4.96875L13.9688 6.375L9.65625 2.0625L11.0625 0.65625ZM8.59375 3.125L12.9062 7.4375L6.1875 14.1562C5.84375 14.5 5.4375 14.75 4.96875 14.875L1 15.9688C0.71875 16.0625 0.4375 15.9688 0.25 15.7812C0.0625 15.5938 0 15.3125 0.0625 15.0625L1.15625 11.0625C1.28125 10.5938 1.53125 10.1875 1.875 9.84375L8.59375 3.125Z" fill="#85CFE5" style="fill:#85CFE5;fill:color(display-p3 0.5216 0.8118 0.8980);fill-opacity:1;"/>
</svg>
