<svg width="21" height="18" viewBox="0 0 21 18" fill="none" xmlns="http://www.w3.org/2000/svg">
<path d="M2.25 3.9375C2.25 1.75781 4.00781 0 6.1875 0C8.36719 0 10.125 1.75781 10.125 3.9375C10.125 6.11719 8.36719 7.875 6.1875 7.875C4.00781 7.875 2.25 6.11719 2.25 3.9375ZM0 15.75C0 12.3398 2.77734 9.5625 6.1875 9.5625C9.59766 9.5625 12.375 12.3398 12.375 15.75V15.9609C12.375 16.7695 11.707 17.4375 10.8984 17.4375H1.47656C0.667969 17.4375 0 16.7695 0 15.9609V15.75ZM15.1875 1.6875C17.0508 1.6875 18.5625 3.19922 18.5625 5.0625C18.5625 6.92578 17.0508 8.4375 15.1875 8.4375C13.3242 8.4375 11.8125 6.92578 11.8125 5.0625C11.8125 3.19922 13.3242 1.6875 15.1875 1.6875ZM15.1875 10.125C18 10.125 20.25 12.4102 20.25 15.1875V15.9609C20.25 16.7695 19.582 17.4375 18.7734 17.4375H13.7109C13.9219 17.0156 14.0625 16.4883 14.0625 15.9609V15.75C14.0625 13.957 13.4648 12.2695 12.4453 10.9336C13.2188 10.4414 14.168 10.125 15.1875 10.125Z" fill="#ABDEED" style="fill:#ABDEED;fill:color(display-p3 0.6706 0.8706 0.9294);fill-opacity:1;"/>
</svg>
