<svg width="18" height="16" viewBox="0 0 18 16" fill="none" xmlns="http://www.w3.org/2000/svg">
<path d="M9 0C9.63281 0 10.125 0.492188 10.125 1.125H12.375C13.0078 1.125 13.5 1.61719 13.5 2.25C13.5 2.88281 13.0078 3.375 12.375 3.375H10.125V5.625H15.75C15.75 4.99219 16.2422 4.5 16.875 4.5C17.5078 4.5 18 4.99219 18 5.625V14.625C18 15.2578 17.5078 15.75 16.875 15.75C16.2422 15.75 15.75 15.2578 15.75 14.625H2.25C2.25 15.2578 1.75781 15.75 1.125 15.75C0.492188 15.75 0 15.2578 0 14.625V5.625C0 4.99219 0.492188 4.5 1.125 4.5C1.75781 4.5 2.25 4.99219 2.25 5.625H7.875V3.375H5.625C4.99219 3.375 4.5 2.88281 4.5 2.25C4.5 1.61719 4.99219 1.125 5.625 1.125H7.875C7.875 0.492188 8.36719 0 9 0Z" fill="#ABDEED" style="fill:#ABDEED;fill:color(display-p3 0.6706 0.8706 0.9294);fill-opacity:1;"/>
</svg>
