<svg width="21" height="19" viewBox="0 0 21 19" fill="none" xmlns="http://www.w3.org/2000/svg">
<path d="M10.0898 0C10.6172 0 11.0742 0.316406 11.2148 0.84375L13.8164 10.3711L14.7305 8.50781C14.9414 8.12109 15.3281 7.875 15.75 7.875H19.125C19.7578 7.875 20.25 8.36719 20.25 9C20.25 9.63281 19.7578 10.125 19.125 10.125H16.4531L14.5195 13.9922C14.3086 14.4141 13.8516 14.6602 13.3945 14.625C12.9375 14.5898 12.5508 14.2383 12.4102 13.7812L10.2656 5.87109L7.83984 17.1211C7.73438 17.6133 7.3125 18 6.78516 18C6.25781 18.0352 5.80078 17.6836 5.66016 17.1914L3.65625 10.125H1.125C0.492188 10.125 0 9.63281 0 9C0 8.36719 0.492188 7.875 1.125 7.875H4.5C4.99219 7.875 5.44922 8.22656 5.58984 8.68359L6.60938 12.2344L9.03516 0.878906C9.14062 0.386719 9.5625 0 10.0898 0Z" fill="#ABDEED" style="fill:#ABDEED;fill:color(display-p3 0.6706 0.8706 0.9294);fill-opacity:1;"/>
</svg>
