<svg width="18" height="18" viewBox="0 0 18 18" fill="none" xmlns="http://www.w3.org/2000/svg">
<path d="M9 18C4.04297 18 0 13.957 0 9C0 4.04297 4.04297 0 9 0C13.957 0 18 4.04297 18 9C18 13.957 13.957 18 9 18ZM5.87109 5.87109C5.55469 6.1875 5.55469 6.75 5.87109 7.06641L7.80469 9L5.87109 10.9336C5.55469 11.25 5.55469 11.7773 5.87109 12.1289C6.1875 12.4453 6.75 12.4453 7.06641 12.1289L9 10.1953L10.9336 12.1289C11.25 12.4453 11.7773 12.4453 12.1289 12.1289C12.4453 11.8125 12.4453 11.25 12.1289 10.9336L10.1953 9L12.1289 7.06641C12.4453 6.75 12.4453 6.1875 12.1289 5.87109C11.8125 5.55469 11.25 5.55469 10.9336 5.87109L9 7.80469L7.06641 5.87109C6.75 5.55469 6.1875 5.55469 5.87109 5.87109Z" fill="#F7787C" style="fill:#F7787C;fill:color(display-p3 0.9686 0.4706 0.4863);fill-opacity:1;"/>
</svg>
