<svg width="26" height="23" viewBox="0 0 26 23" fill="none" xmlns="http://www.w3.org/2000/svg">
<path d="M17.0156 0C18.2344 0 19.3594 0.65625 19.9219 1.6875L24.4688 9.5625C25.0312 10.5938 25.0312 11.9062 24.4688 12.9375L19.9219 20.8125C19.3594 21.8438 18.2344 22.5 17.0156 22.5H8.01562C6.79688 22.5 5.71875 21.8438 5.10938 20.8125L0.609375 12.9375C0 11.9062 0 10.5938 0.609375 9.5625L5.10938 1.6875C5.71875 0.65625 6.79688 0 8.01562 0H17.0156ZM12.5156 14.25C11.6719 14.25 11.0156 14.9062 11.0156 15.75C11.0156 16.5938 11.6719 17.25 12.5156 17.25C13.3594 17.25 14.0156 16.5938 14.0156 15.75C14.0156 14.9062 13.3594 14.25 12.5156 14.25ZM12.5156 5.25C11.6719 5.25 10.9688 6 11.0625 6.84375L11.3906 11.7188C11.4375 12.2812 11.9062 12.75 12.5156 12.75C13.125 12.75 13.5938 12.2812 13.6406 11.7188L13.9688 6.84375C14.0625 6 13.3594 5.25 12.5156 5.25Z" fill="#F7787C" style="fill:#F7787C;fill:color(display-p3 0.9686 0.4706 0.4863);fill-opacity:1;"/>
</svg>
