<svg width="30" height="27" viewBox="0 0 30 27" fill="none" xmlns="http://www.w3.org/2000/svg">
<path d="M0.710938 15.0938C0 13.8906 0 12.3594 0.710938 11.1562L5.96094 1.96875C6.67188 0.765625 7.92969 0 9.35156 0H19.8516C21.2734 0 22.5859 0.765625 23.2422 1.96875L28.5469 11.1562C29.2031 12.4141 29.2031 13.8906 28.5469 15.0938L23.2422 24.2812C22.5859 25.4844 21.2734 26.25 19.8516 26.25H9.35156C7.92969 26.25 6.67188 25.4844 5.96094 24.2812L0.710938 15.0938ZM9.73438 8.25781C9.24219 8.75 9.24219 9.625 9.73438 10.1172L12.7422 13.125L9.73438 16.1328C9.24219 16.625 9.24219 17.5 9.73438 17.9922C10.2266 18.4844 11.1016 18.4844 11.5938 17.9922L14.6016 14.9844L17.6094 17.9922C18.1016 18.4844 18.9766 18.4844 19.4688 17.9922C19.9609 17.4453 19.9609 16.625 19.4688 16.1328L16.4609 13.125L19.4688 10.1172C19.9609 9.625 19.9609 8.75 19.4688 8.25781C18.9219 7.76562 18.1016 7.76562 17.6094 8.25781L14.6016 11.2656L11.5938 8.25781C11.1016 7.76562 10.2266 7.76562 9.73438 8.25781Z" fill="#F5575C" style="fill:#F5575C;fill:color(display-p3 0.9608 0.3412 0.3608);fill-opacity:1;"/>
</svg>
