<svg width="21" height="19" viewBox="0 0 21 19" fill="none" xmlns="http://www.w3.org/2000/svg">
<path d="M0.507812 10.7812C0 9.92188 0 8.82812 0.507812 7.96875L4.25781 1.40625C4.76562 0.546875 5.66406 0 6.67969 0H14.1797C15.1953 0 16.1328 0.546875 16.6016 1.40625L20.3906 7.96875C20.8594 8.86719 20.8594 9.92188 20.3906 10.7812L16.6016 17.3438C16.1328 18.2031 15.1953 18.75 14.1797 18.75H6.67969C5.66406 18.75 4.76562 18.2031 4.25781 17.3438L0.507812 10.7812ZM6.95312 5.89844C6.60156 6.25 6.60156 6.875 6.95312 7.22656L9.10156 9.375L6.95312 11.5234C6.60156 11.875 6.60156 12.5 6.95312 12.8516C7.30469 13.2031 7.92969 13.2031 8.28125 12.8516L10.4297 10.7031L12.5781 12.8516C12.9297 13.2031 13.5547 13.2031 13.9062 12.8516C14.2578 12.4609 14.2578 11.875 13.9062 11.5234L11.7578 9.375L13.9062 7.22656C14.2578 6.875 14.2578 6.25 13.9062 5.89844C13.5156 5.54688 12.9297 5.54688 12.5781 5.89844L10.4297 8.04688L8.28125 5.89844C7.92969 5.54688 7.30469 5.54688 6.95312 5.89844Z" fill="#F5575C" style="fill:#F5575C;fill:color(display-p3 0.9608 0.3412 0.3608);fill-opacity:1;"/>
</svg>
