<svg width="163" height="25" viewBox="0 0 163 25" fill="none" xmlns="http://www.w3.org/2000/svg">
<path d="M0 8C0 3.58172 3.58172 0 8 0H155C159.418 0 163 3.58172 163 8V17C163 21.4183 159.418 25 155 25H8C3.58173 25 0 21.4183 0 17V8Z" fill="#7D070B" style="fill:#7D070B;fill:color(display-p3 0.4902 0.0275 0.0431);fill-opacity:1;"/>
<path d="M16 7C16.1172 7 16.2109 7.02344 16.3047 7.07031L20.7344 8.94531C21.25 9.15625 21.625 9.67188 21.625 10.2812C21.625 12.6016 20.6641 16.8672 16.6328 18.7891C16.2344 18.9766 15.7656 18.9766 15.3906 18.7891C11.3359 16.8672 10.3984 12.6016 10.375 10.2812C10.375 9.67188 10.75 9.15625 11.2656 8.94531L15.6953 7.07031C15.7891 7.02344 15.8828 7 16 7Z" fill="#F5575C" style="fill:#F5575C;fill:color(display-p3 0.9608 0.3412 0.3608);fill-opacity:1;"/>
<path d="M35.108 13.061L38.696 17H37.149L33.665 13.074H33.535V17H32.326V7.328H34.887C37.123 7.328 38.293 8.511 38.293 10.201C38.293 11.774 37.214 12.944 35.108 13.061ZM33.535 12.06H34.705C36.382 12.06 37.058 11.332 37.058 10.24C37.058 9.135 36.278 8.459 34.809 8.459H33.535V12.06ZM45.9939 13.347C45.9939 13.555 45.9809 13.724 45.9549 13.88H40.7419C40.9109 15.271 41.8989 16.116 43.2249 16.116C44.0309 16.116 44.8629 15.817 45.5909 15.193V16.376C44.8759 16.896 44.0439 17.156 43.1339 17.156C40.9499 17.156 39.5719 15.687 39.5719 13.516C39.5719 11.241 41.1449 9.811 42.9649 9.811C44.6289 9.811 45.9939 11.033 45.9939 13.347ZM40.7419 12.983H44.8369C44.8109 11.527 43.9139 10.851 42.9519 10.851C41.8729 10.851 40.9239 11.67 40.7419 12.983ZM50.4502 9.824C51.4512 9.824 52.4132 10.305 52.9462 11.189L53.0892 9.967H54.0642V16.428C54.0642 18.703 52.4392 19.886 50.6062 19.886C49.6572 19.886 48.7082 19.561 47.9802 19.015V17.728C48.7082 18.391 49.6182 18.768 50.5542 18.768C51.8152 18.768 52.8682 17.923 52.8682 16.623V15.557C52.3482 16.376 51.4382 16.883 50.4502 16.883C48.7862 16.883 47.2522 15.466 47.2522 13.36C47.2522 11.267 48.7992 9.824 50.4502 9.824ZM50.6842 10.929C49.4362 10.929 48.4612 11.969 48.4612 13.373C48.4612 14.751 49.4362 15.791 50.6842 15.791C51.9322 15.791 52.9072 14.738 52.9072 13.321C52.9072 11.93 51.9322 10.929 50.6842 10.929ZM59.0202 17.156C57.2262 17.156 56.1602 15.986 56.1602 14.296V9.967H57.3562V14.322C57.3562 15.401 57.9932 16.038 59.0202 16.038C60.0732 16.038 60.7362 15.401 60.7362 14.322V9.967H61.9322V14.296C61.9322 15.986 60.8272 17.156 59.0202 17.156ZM64.0467 17V6.6H65.2427V17H64.0467ZM70.1914 17.156C68.5404 17.156 66.9934 15.713 66.9934 13.49C66.9934 11.241 68.5404 9.811 70.1914 9.811C71.2054 9.811 72.1674 10.318 72.7004 11.267L72.8434 9.967H73.8184V17H72.8434L72.7004 15.713C72.1674 16.662 71.2054 17.156 70.1914 17.156ZM70.4384 16.038C71.6734 16.038 72.6614 14.998 72.6614 13.477C72.6614 11.969 71.6734 10.929 70.4384 10.929C69.1774 10.929 68.2024 11.969 68.2024 13.49C68.2024 14.998 69.1774 16.038 70.4384 16.038ZM77.4741 8.316V9.967H79.4891V11.007H77.4741V14.491C77.4741 15.583 78.1241 16.038 79.0211 16.038C79.2161 16.038 79.4241 16.012 79.6451 15.973V17.013C79.5151 17.039 79.2031 17.091 78.8131 17.091C77.2921 17.091 76.3041 16.181 76.3041 14.543V11.007H75.2511V9.967H76.3301V8.316H77.4741ZM84.062 17.156C82.06 17.156 80.552 15.609 80.552 13.49C80.552 11.371 82.06 9.811 84.062 9.811C86.051 9.811 87.546 11.371 87.546 13.49C87.546 15.596 86.051 17.156 84.062 17.156ZM84.062 16.038C85.232 16.038 86.35 15.102 86.35 13.49C86.35 11.865 85.232 10.929 84.062 10.929C82.879 10.929 81.761 11.865 81.761 13.49C81.761 15.115 82.879 16.038 84.062 16.038ZM89.2844 17V9.967H90.2334L90.3634 11.085H90.3764C90.8574 10.175 91.7674 9.889 92.3914 9.889C92.5734 9.889 92.7164 9.902 92.8594 9.928V11.072C92.7034 11.046 92.5344 11.02 92.3654 11.02C91.4294 11.02 90.4804 11.618 90.4804 12.996V17H89.2844ZM94.7961 8.355C94.3671 8.355 94.0551 8.043 94.0551 7.627C94.0551 7.211 94.3671 6.899 94.7961 6.899C95.2251 6.899 95.5371 7.211 95.5371 7.627C95.5371 8.043 95.2251 8.355 94.7961 8.355ZM94.1981 17V9.967H95.3941V17H94.1981ZM97.6258 17V6.6H98.8218V17H97.6258ZM106.683 9.967L102.874 19.73H101.652L102.861 16.753L100.235 9.967H101.535L103.472 15.323H103.498L105.435 9.967H106.683ZM118.266 16.532C117.642 16.896 116.81 17.195 115.705 17.195C113.183 17.195 110.908 15.245 110.908 12.151C110.908 9.07 113.183 7.133 115.705 7.133C116.81 7.133 117.655 7.432 118.266 7.796V9.07C117.499 8.589 116.784 8.29 115.757 8.29C113.95 8.29 112.143 9.72 112.143 12.164C112.143 14.582 113.95 16.038 115.757 16.038C116.784 16.038 117.499 15.726 118.266 15.245V16.532ZM119.969 17V9.967H120.918L121.048 11.085H121.061C121.542 10.175 122.452 9.889 123.076 9.889C123.258 9.889 123.401 9.902 123.544 9.928V11.072C123.388 11.046 123.219 11.02 123.05 11.02C122.114 11.02 121.165 11.618 121.165 12.996V17H119.969ZM125.481 8.355C125.052 8.355 124.74 8.043 124.74 7.627C124.74 7.211 125.052 6.899 125.481 6.899C125.91 6.899 126.222 7.211 126.222 7.627C126.222 8.043 125.91 8.355 125.481 8.355ZM124.883 17V9.967H126.079V17H124.883ZM129.753 8.316V9.967H131.768V11.007H129.753V14.491C129.753 15.583 130.403 16.038 131.3 16.038C131.495 16.038 131.703 16.012 131.924 15.973V17.013C131.794 17.039 131.482 17.091 131.092 17.091C129.571 17.091 128.583 16.181 128.583 14.543V11.007H127.53V9.967H128.609V8.316H129.753ZM133.974 8.355C133.545 8.355 133.233 8.043 133.233 7.627C133.233 7.211 133.545 6.899 133.974 6.899C134.403 6.899 134.715 7.211 134.715 7.627C134.715 8.043 134.403 8.355 133.974 8.355ZM133.376 17V9.967H134.572V17H133.376ZM137.532 13.477C137.532 15.089 138.702 16.038 139.95 16.038C140.535 16.038 141.237 15.921 141.822 15.466V16.675C141.302 16.974 140.639 17.156 139.872 17.156C137.844 17.156 136.323 15.583 136.323 13.477C136.323 11.397 137.844 9.811 139.872 9.811C140.6 9.811 141.263 9.954 141.822 10.305V11.527C141.237 11.098 140.665 10.929 139.937 10.929C138.702 10.929 137.532 11.891 137.532 13.477ZM146.224 17.156C144.573 17.156 143.026 15.713 143.026 13.49C143.026 11.241 144.573 9.811 146.224 9.811C147.238 9.811 148.2 10.318 148.733 11.267L148.876 9.967H149.851V17H148.876L148.733 15.713C148.2 16.662 147.238 17.156 146.224 17.156ZM146.471 16.038C147.706 16.038 148.694 14.998 148.694 13.477C148.694 11.969 147.706 10.929 146.471 10.929C145.21 10.929 144.235 11.969 144.235 13.49C144.235 14.998 145.21 16.038 146.471 16.038ZM152.063 17V6.6H153.259V17H152.063Z" fill="#EDF8EC" style="fill:#EDF8EC;fill:color(display-p3 0.9294 0.9725 0.9255);fill-opacity:1;"/>
</svg>
