<svg width="18" height="18" viewBox="0 0 18 18" fill="none" xmlns="http://www.w3.org/2000/svg">
<path d="M2.32031 8.05078C2.21484 8.64844 1.65234 9.07031 1.05469 9C0.421875 8.89453 0 8.33203 0.105469 7.73438C0.703125 3.33984 4.46484 0 9 0C11.4961 0 13.7461 1.01953 15.3633 2.63672L15.75 2.98828V1.125C15.75 0.492188 16.2422 0 16.875 0C17.5078 0 18 0.492188 18 1.125V5.625C18 6.25781 17.5078 6.75 16.875 6.75H12.375C11.7422 6.75 11.25 6.25781 11.25 5.625C11.25 4.99219 11.7422 4.5 12.375 4.5H14.0625L13.7812 4.25391V4.21875C12.5508 3.02344 10.8633 2.25 9 2.25C5.58984 2.25 2.77734 4.78125 2.32031 8.05078ZM17.8945 10.3008C17.2969 14.6602 13.5352 18 9 18C6.53906 18 4.28906 16.9805 2.63672 15.3633L2.28516 15.0117V16.8398C2.28516 17.4375 1.79297 17.9648 1.16016 17.9648C0.5625 17.9648 0.0351562 17.4727 0.0351562 16.8398L0 12.375C0 12.0938 0.105469 11.8125 0.316406 11.6016C0.527344 11.3555 0.84375 11.25 1.125 11.25H5.625C6.25781 11.25 6.75 11.7422 6.75 12.375C6.75 13.0078 6.25781 13.5 5.625 13.5H3.9375L4.21875 13.7461V13.7812C5.44922 14.9766 7.13672 15.75 9 15.75C12.4102 15.75 15.2227 13.2188 15.6797 9.94922C15.7852 9.35156 16.3477 8.92969 16.9453 9C17.5781 9.10547 18 9.66797 17.8945 10.3008Z" fill="#ABDEED" style="fill:#ABDEED;fill:color(display-p3 0.6706 0.8706 0.9294);fill-opacity:1;"/>
</svg>
