<svg width="85" height="24" viewBox="0 0 85 24" fill="none" xmlns="http://www.w3.org/2000/svg">
<rect width="85" height="24" rx="12" fill="#763905" style="fill:#763905;fill:color(display-p3 0.4627 0.2235 0.0196);fill-opacity:1;"/>
<path d="M17.375 10.4375C17.375 11.6953 16.9648 12.8438 16.2812 13.8008L19.7539 17.2461C20.082 17.6016 20.082 18.1484 19.7539 18.5039C19.3984 18.832 18.8516 18.832 18.4961 18.5039L15.0508 15.0312C14.0938 15.7148 12.9453 16.125 11.6875 16.125C8.54297 16.125 6 13.582 6 10.4375C6 7.29297 8.54297 4.75 11.6875 4.75C14.832 4.75 17.375 7.29297 17.375 10.4375ZM11.6875 14.375C13.875 14.375 15.625 12.625 15.625 10.4375C15.625 8.25 13.875 6.5 11.6875 6.5C9.5 6.5 7.75 8.25 7.75 10.4375C7.75 12.625 9.5 14.375 11.6875 14.375Z" fill="#F9A65D" style="fill:#F9A65D;fill:color(display-p3 0.9765 0.6510 0.3647);fill-opacity:1;"/>
<path d="M32.108 12.561L35.696 16.5H34.149L30.665 12.574H30.535V16.5H29.326V6.828H31.887C34.123 6.828 35.293 8.011 35.293 9.701C35.293 11.274 34.214 12.444 32.108 12.561ZM30.535 11.56H31.705C33.382 11.56 34.058 10.832 34.058 9.74C34.058 8.635 33.278 7.959 31.809 7.959H30.535V11.56ZM42.9939 12.847C42.9939 13.055 42.9809 13.224 42.9549 13.38H37.7419C37.9109 14.771 38.8989 15.616 40.2249 15.616C41.0309 15.616 41.8629 15.317 42.5909 14.693V15.876C41.8759 16.396 41.0439 16.656 40.1339 16.656C37.9499 16.656 36.5719 15.187 36.5719 13.016C36.5719 10.741 38.1449 9.311 39.9649 9.311C41.6289 9.311 42.9939 10.533 42.9939 12.847ZM37.7419 12.483H41.8369C41.8109 11.027 40.9139 10.351 39.9519 10.351C38.8729 10.351 37.9239 11.17 37.7419 12.483ZM46.2597 16.5L43.6987 9.467H44.9727L46.9097 15.174H46.9487L48.8857 9.467H50.1207L47.5597 16.5H46.2597ZM52.1232 7.855C51.6942 7.855 51.3822 7.543 51.3822 7.127C51.3822 6.711 51.6942 6.399 52.1232 6.399C52.5522 6.399 52.8642 6.711 52.8642 7.127C52.8642 7.543 52.5522 7.855 52.1232 7.855ZM51.5252 16.5V9.467H52.7212V16.5H51.5252ZM60.907 12.847C60.907 13.055 60.894 13.224 60.868 13.38H55.655C55.824 14.771 56.812 15.616 58.138 15.616C58.944 15.616 59.776 15.317 60.504 14.693V15.876C59.789 16.396 58.957 16.656 58.047 16.656C55.863 16.656 54.485 15.187 54.485 13.016C54.485 10.741 56.058 9.311 57.878 9.311C59.542 9.311 60.907 10.533 60.907 12.847ZM55.655 12.483H59.75C59.724 11.027 58.827 10.351 57.865 10.351C56.786 10.351 55.837 11.17 55.655 12.483ZM68.6832 16.5L66.9152 10.988H66.8762L65.0952 16.5H63.7302L61.7412 9.467H62.9892L64.4582 15.161H64.4842L66.2782 9.467H67.5262L69.3072 15.161H69.3462L70.8412 9.467H72.0242L70.0482 16.5H68.6832Z" fill="#EDF8EC" style="fill:#EDF8EC;fill:color(display-p3 0.9294 0.9725 0.9255);fill-opacity:1;"/>
</svg>
