<svg width="19" height="19" viewBox="0 0 19 19" fill="none" xmlns="http://www.w3.org/2000/svg">
<path d="M14.625 7.3125C14.625 8.92969 14.0977 10.4062 13.2188 11.6367L17.6836 16.0664C18.1055 16.5234 18.1055 17.2266 17.6836 17.6836C17.2266 18.1055 16.5234 18.1055 16.0664 17.6836L11.6367 13.2188C10.4062 14.0977 8.92969 14.625 7.3125 14.625C3.26953 14.625 0 11.3555 0 7.3125C0 3.26953 3.26953 0 7.3125 0C11.3555 0 14.625 3.26953 14.625 7.3125ZM7.3125 12.375C10.125 12.375 12.375 10.125 12.375 7.3125C12.375 4.5 10.125 2.25 7.3125 2.25C4.5 2.25 2.25 4.5 2.25 7.3125C2.25 10.125 4.5 12.375 7.3125 12.375Z" fill="#FAD13D" style="fill:#FAD13D;fill:color(display-p3 0.9804 0.8196 0.2392);fill-opacity:1;"/>
</svg>
