<svg width="90" height="24" viewBox="0 0 90 24" fill="none" xmlns="http://www.w3.org/2000/svg">
<rect width="90" height="24" rx="12" fill="#1F4B1B" style="fill:#1F4B1B;fill:color(display-p3 0.1216 0.2941 0.1059);fill-opacity:1;"/>
<path d="M13 18.75C9.14453 18.75 6 15.6055 6 11.75C6 7.89453 9.14453 4.75 13 4.75C16.8555 4.75 20 7.89453 20 11.75C20 15.6055 16.8555 18.75 13 18.75ZM16.2266 8.74219C15.9258 8.52344 15.5156 8.57812 15.3242 8.87891L12.043 13.3633L10.6211 11.9414C10.375 11.6953 9.9375 11.6953 9.69141 11.9414C9.44531 12.2148 9.44531 12.625 9.69141 12.8711L11.6602 14.8398C11.7969 14.9766 11.9883 15.0586 12.1797 15.0312C12.3711 15.0312 12.5352 14.9219 12.6445 14.7578L16.3633 9.64453C16.582 9.37109 16.5273 8.96094 16.2266 8.74219Z" fill="#70C86A" style="fill:#70C86A;fill:color(display-p3 0.4392 0.7843 0.4157);fill-opacity:1;"/>
<path d="M31.913 6.62C32.81 6.62 33.642 6.906 34.214 7.257V8.505C33.538 8.024 32.68 7.751 31.926 7.751C30.938 7.751 30.08 8.232 30.08 9.194C30.08 10.039 30.756 10.442 32.082 11.04C33.551 11.69 34.734 12.314 34.734 13.9C34.734 15.668 33.278 16.708 31.523 16.708C30.392 16.708 29.404 16.266 28.819 15.811V14.459C29.482 15.135 30.496 15.577 31.471 15.577C32.55 15.577 33.486 15.005 33.486 13.965C33.486 13.068 32.771 12.626 31.419 12.015C30.002 11.378 28.858 10.793 28.858 9.259C28.858 7.582 30.21 6.62 31.913 6.62ZM39.237 16.656C37.443 16.656 36.377 15.486 36.377 13.796V9.467H37.573V13.822C37.573 14.901 38.21 15.538 39.237 15.538C40.29 15.538 40.953 14.901 40.953 13.822V9.467H42.149V13.796C42.149 15.486 41.044 16.656 39.237 16.656ZM44.9915 12.977C44.9915 14.589 46.1615 15.538 47.4095 15.538C47.9945 15.538 48.6965 15.421 49.2815 14.966V16.175C48.7615 16.474 48.0985 16.656 47.3315 16.656C45.3035 16.656 43.7825 15.083 43.7825 12.977C43.7825 10.897 45.3035 9.311 47.3315 9.311C48.0595 9.311 48.7225 9.454 49.2815 9.805V11.027C48.6965 10.598 48.1245 10.429 47.3965 10.429C46.1615 10.429 44.9915 11.391 44.9915 12.977ZM51.6946 12.977C51.6946 14.589 52.8646 15.538 54.1126 15.538C54.6976 15.538 55.3996 15.421 55.9846 14.966V16.175C55.4646 16.474 54.8016 16.656 54.0346 16.656C52.0066 16.656 50.4856 15.083 50.4856 12.977C50.4856 10.897 52.0066 9.311 54.0346 9.311C54.7626 9.311 55.4256 9.454 55.9846 9.805V11.027C55.3996 10.598 54.8276 10.429 54.0996 10.429C52.8646 10.429 51.6946 11.391 51.6946 12.977ZM63.6238 12.847C63.6238 13.055 63.6108 13.224 63.5848 13.38H58.3718C58.5408 14.771 59.5288 15.616 60.8548 15.616C61.6608 15.616 62.4928 15.317 63.2208 14.693V15.876C62.5058 16.396 61.6738 16.656 60.7638 16.656C58.5798 16.656 57.2018 15.187 57.2018 13.016C57.2018 10.741 58.7748 9.311 60.5948 9.311C62.2588 9.311 63.6238 10.533 63.6238 12.847ZM58.3718 12.483H62.4668C62.4408 11.027 61.5438 10.351 60.5818 10.351C59.5028 10.351 58.5538 11.17 58.3718 12.483ZM67.5471 9.311C68.3531 9.311 69.1721 9.545 69.6661 9.922V11.105C69.1591 10.676 68.3921 10.377 67.5601 10.377C66.6761 10.377 66.1821 10.754 66.1821 11.326C66.1821 11.95 66.7931 12.184 67.7421 12.457C68.8211 12.769 70.0431 13.12 70.0431 14.537C70.0431 15.824 69.0421 16.656 67.4171 16.656C66.5071 16.656 65.6361 16.396 64.9861 15.876V14.589C65.5321 15.148 66.3641 15.59 67.3781 15.59C68.3271 15.59 68.8731 15.174 68.8731 14.55C68.8731 13.874 68.2101 13.653 67.1961 13.341C66.0391 12.99 65.0121 12.613 65.0121 11.378C65.0121 10.195 65.9871 9.311 67.5471 9.311ZM73.9583 9.311C74.7643 9.311 75.5833 9.545 76.0773 9.922V11.105C75.5703 10.676 74.8033 10.377 73.9713 10.377C73.0873 10.377 72.5933 10.754 72.5933 11.326C72.5933 11.95 73.2043 12.184 74.1533 12.457C75.2323 12.769 76.4543 13.12 76.4543 14.537C76.4543 15.824 75.4533 16.656 73.8283 16.656C72.9183 16.656 72.0473 16.396 71.3973 15.876V14.589C71.9433 15.148 72.7753 15.59 73.7893 15.59C74.7383 15.59 75.2843 15.174 75.2843 14.55C75.2843 13.874 74.6213 13.653 73.6073 13.341C72.4503 12.99 71.4233 12.613 71.4233 11.378C71.4233 10.195 72.3983 9.311 73.9583 9.311Z" fill="#EDF8EC" style="fill:#EDF8EC;fill:color(display-p3 0.9294 0.9725 0.9255);fill-opacity:1;"/>
</svg>
