<svg width="21" height="12" viewBox="0 0 21 12" fill="none" xmlns="http://www.w3.org/2000/svg">
<path d="M13.6055 2.25C12.9727 2.25 12.4805 1.75781 12.4805 1.125C12.4805 0.492188 12.9727 0 13.6055 0H19.2305C19.8633 0 20.3555 0.492188 20.3555 1.125V6.75C20.3555 7.38281 19.8633 7.875 19.2305 7.875C18.5977 7.875 18.1055 7.38281 18.1055 6.75V3.83203L12.1641 9.80859C11.707 10.2305 11.0039 10.2305 10.5469 9.80859L6.85547 6.08203L2.03906 10.9336C1.58203 11.3555 0.878906 11.3555 0.421875 10.9336C0 10.4766 0 9.77344 0.421875 9.31641L6.04688 3.69141C6.50391 3.26953 7.20703 3.26953 7.66406 3.69141L11.3555 7.41797L16.5234 2.25H13.6055Z" fill="#ABDEED" style="fill:#ABDEED;fill:color(display-p3 0.6706 0.8706 0.9294);fill-opacity:1;"/>
</svg>
