<svg width="18" height="16" viewBox="0 0 18 16" fill="none" xmlns="http://www.w3.org/2000/svg">
<path d="M2.25 1.125V12.9375C2.25 13.2539 2.49609 13.5 2.8125 13.5H16.875C17.5078 13.5 18 13.9922 18 14.625C18 15.2578 17.5078 15.75 16.875 15.75H2.8125C1.26562 15.75 0 14.4844 0 12.9375V1.125C0 0.492188 0.492188 0 1.125 0C1.75781 0 2.25 0.492188 2.25 1.125ZM16.5586 4.18359L12.0586 8.68359C11.6016 9.10547 10.8984 9.10547 10.4414 8.68359L8.4375 6.64453L5.87109 9.24609C5.41406 9.66797 4.71094 9.66797 4.25391 9.24609C3.83203 8.78906 3.83203 8.08594 4.25391 7.62891L7.62891 4.25391C8.08594 3.83203 8.78906 3.83203 9.24609 4.25391L11.25 6.29297L14.9414 2.56641C15.3984 2.14453 16.1016 2.14453 16.5586 2.56641C16.9805 3.02344 16.9805 3.72656 16.5586 4.18359Z" fill="#ABDEED" style="fill:#ABDEED;fill:color(display-p3 0.6706 0.8706 0.9294);fill-opacity:1;"/>
</svg>
