<svg width="12" height="16" viewBox="0 0 12 16" fill="none" xmlns="http://www.w3.org/2000/svg">
<path d="M0 2C0 0.90625 0.90625 0 2 0H6.6875C7.21875 0 7.71875 0.21875 8.09375 0.59375L11.4062 3.90625C11.7812 4.28125 12 4.8125 12 5.34375V14C12 15.0938 11.0938 16 10 16H2C0.90625 16 0 15.0938 0 14V2ZM6.5 1.84375V4.75C6.5 5.15625 6.84375 5.5 7.25 5.5H10.1875L6.5 1.84375ZM6.53125 8.21875C6.25 7.9375 5.75 7.9375 5.46875 8.21875L3.46875 10.2188C3.1875 10.5 3.1875 11 3.46875 11.2812C3.78125 11.5625 4.25 11.5625 4.53125 11.2812L5.25 10.5625V13.25C5.25 13.6562 5.59375 14 6 14C6.40625 14 6.75 13.6562 6.75 13.25V10.5625L7.46875 11.2812C7.75 11.5625 8.25 11.5625 8.53125 11.2812C8.8125 11 8.8125 10.5 8.53125 10.2188L6.53125 8.21875Z" fill="#85CFE5" style="fill:#85CFE5;fill:color(display-p3 0.5216 0.8118 0.8980);fill-opacity:1;"/>
</svg>
