<svg width="200" height="50" viewBox="0 0 200 50" fill="none" xmlns="http://www.w3.org/2000/svg">
<g clip-path="url(#clip0_507_204)">
<path d="M57.5255 16.6215L61.3669 29.2013H61.5086L65.35 16.6215H69.9964L64.2008 33.7979H58.6747L52.8792 16.6215H57.5255Z" fill="#F1F2F4" style="fill:#F1F2F4;fill:color(display-p3 0.9451 0.9490 0.9569);fill-opacity:1;"/>
<path d="M73.9048 19.4149C73.3286 19.4149 72.8335 19.2234 72.4208 18.8403C72.0067 18.4573 71.7996 17.9948 71.7996 17.453C71.7996 16.9111 72.0067 16.4564 72.4208 16.0734C72.835 15.6903 73.3286 15.4988 73.9048 15.4988C74.4809 15.4988 74.9823 15.6903 75.3934 16.0734C75.8044 16.4564 76.01 16.9158 76.01 17.453C76.01 17.9902 75.8044 18.4573 75.3934 18.8403C74.9823 19.2234 74.4856 19.4149 73.9048 19.4149ZM71.8494 33.7979V20.916H75.9508V33.7979H71.8494Z" fill="#F1F2F4" style="fill:#F1F2F4;fill:color(display-p3 0.9451 0.9490 0.9569);fill-opacity:1;"/>
<path d="M89.7996 24.8492L86.0345 24.9489C85.9956 24.681 85.8897 24.4412 85.7153 24.2326C85.5425 24.0224 85.3167 23.8589 85.0395 23.7374C84.7624 23.6175 84.4432 23.5568 84.0788 23.5568C83.6039 23.5568 83.199 23.6518 82.8674 23.8418C82.5357 24.0317 82.3707 24.2886 82.3769 24.6141C82.3707 24.8648 82.4734 25.0843 82.6821 25.2681C82.8923 25.4518 83.2676 25.5997 83.811 25.7118L86.293 26.1821C87.5792 26.4281 88.5368 26.8361 89.1659 27.406C89.7949 27.9759 90.1126 28.7311 90.1172 29.67C90.111 30.5529 89.8494 31.3221 89.3325 31.9761C88.8155 32.63 88.1101 33.1377 87.2148 33.4989C86.3195 33.8601 85.2965 34.0392 84.1458 34.0392C82.3068 34.0392 80.8572 33.6608 79.7968 32.9025C78.7364 32.1458 78.1322 31.129 77.9812 29.8537L82.0328 29.7525C82.1215 30.2228 82.3535 30.5809 82.7288 30.8254C83.1041 31.0714 83.5821 31.1944 84.1629 31.1944C84.6892 31.1944 85.1158 31.0963 85.4459 30.9001C85.7761 30.7039 85.9442 30.4439 85.9489 30.12C85.9427 29.8288 85.815 29.5952 85.5627 29.4193C85.3105 29.2433 84.9165 29.1048 84.3793 29.0035L82.1324 28.5753C80.84 28.3402 79.8793 27.9058 79.2471 27.2705C78.6149 26.6368 78.302 25.8271 78.3082 24.843C78.302 23.9819 78.5324 23.2454 78.9964 22.6334C79.4604 22.0215 80.1207 21.5528 80.9755 21.2289C81.8304 20.9051 82.8394 20.7431 84.0025 20.7431C85.748 20.7431 87.1229 21.1075 88.1288 21.8378C89.1347 22.568 89.6922 23.5693 89.798 24.8445L89.7996 24.8492Z" fill="#F1F2F4" style="fill:#F1F2F4;fill:color(display-p3 0.9451 0.9490 0.9569);fill-opacity:1;"/>
<path d="M95.7617 34.0159C94.9395 34.0159 94.2108 33.8773 93.5771 33.6001C92.9418 33.3229 92.4419 32.9041 92.076 32.342C91.7101 31.7799 91.5264 31.0745 91.5264 30.2243C91.5264 29.5096 91.6525 28.9054 91.9032 28.4134C92.1539 27.9214 92.5011 27.5212 92.9433 27.2144C93.3855 26.9061 93.8932 26.6741 94.4693 26.5137C95.0454 26.3549 95.6605 26.2475 96.3145 26.1914C97.0463 26.1245 97.6364 26.0528 98.0849 25.9765C98.5318 25.9018 98.8588 25.7928 99.0627 25.6495C99.2667 25.5063 99.3695 25.3039 99.3695 25.0423V25.0002C99.3695 24.5705 99.2216 24.2373 98.9242 24.0021C98.6283 23.767 98.2281 23.6502 97.7252 23.6502C97.1833 23.6502 96.7458 23.767 96.4172 24.0021C96.0871 24.2373 95.8769 24.5611 95.7882 24.9753L92.006 24.8414C92.1181 24.0582 92.4077 23.3591 92.8748 22.7409C93.3419 22.1227 93.985 21.6369 94.8041 21.2819C95.6231 20.9269 96.6087 20.7493 97.761 20.7493C98.5832 20.7493 99.3399 20.8459 100.034 21.039C100.727 21.232 101.331 21.5123 101.845 21.8782C102.359 22.2442 102.758 22.6926 103.04 23.2236C103.321 23.7546 103.463 24.3618 103.463 25.0438V33.7994H99.6046V32.0041H99.5034C99.2745 32.4401 98.9818 32.8091 98.6267 33.1112C98.2717 33.4133 97.8544 33.639 97.3764 33.7901C96.8984 33.9411 96.3596 34.0159 95.7617 34.0159ZM97.0276 31.3314C97.4698 31.3314 97.8669 31.2427 98.2219 31.0636C98.5769 30.8845 98.8603 30.6369 99.0736 30.3209C99.2854 30.0048 99.3928 29.6373 99.3928 29.2184V27.9945C99.2761 28.0568 99.1344 28.1113 98.9693 28.1627C98.8043 28.2125 98.6236 28.2608 98.4274 28.3044C98.2312 28.3496 98.0304 28.3885 97.8233 28.4212C97.6162 28.4554 97.4184 28.485 97.2269 28.5131C96.8408 28.5753 96.5122 28.6703 96.2413 28.798C95.9703 28.9272 95.7632 29.0939 95.62 29.2978C95.4767 29.5018 95.4067 29.7432 95.4067 30.0234C95.4067 30.4485 95.5593 30.7724 95.8629 30.9966C96.1681 31.2209 96.5558 31.333 97.0245 31.333L97.0276 31.3314Z" fill="#F1F2F4" style="fill:#F1F2F4;fill:color(display-p3 0.9451 0.9490 0.9569);fill-opacity:1;"/>
<path d="M105.959 33.7979V20.916H109.942V23.2641H110.076C110.311 22.4139 110.694 21.7817 111.225 21.3644C111.756 20.9471 112.374 20.74 113.08 20.74C113.27 20.74 113.466 20.7525 113.667 20.7774C113.868 20.8023 114.056 20.8397 114.229 20.8911V24.4553C114.033 24.3883 113.777 24.3354 113.461 24.2964C113.145 24.2575 112.865 24.2373 112.619 24.2373C112.133 24.2373 111.694 24.3447 111.306 24.5596C110.917 24.7745 110.613 25.0734 110.392 25.4565C110.171 25.8395 110.061 26.288 110.061 26.8018V33.7963H105.959V33.7979Z" fill="#F1F2F4" style="fill:#F1F2F4;fill:color(display-p3 0.9451 0.9490 0.9569);fill-opacity:1;"/>
<path d="M118.816 38.628C118.324 38.628 117.86 38.5906 117.424 38.5143C116.988 38.4396 116.613 38.3399 116.3 38.2169L117.206 35.2397C117.608 35.3737 117.974 35.4531 118.301 35.4749C118.628 35.4967 118.91 35.4453 119.148 35.3192C119.386 35.193 119.568 34.9704 119.697 34.6527L119.856 34.2666L115.277 20.9144H119.571L121.944 30.106H122.078L124.486 20.9144H128.805L123.948 35.0295C123.713 35.7333 123.382 36.3562 122.955 36.8949C122.527 37.4353 121.976 37.8572 121.303 38.1655C120.629 38.4738 119.8 38.6264 118.816 38.6264V38.628Z" fill="#F1F2F4" style="fill:#F1F2F4;fill:color(display-p3 0.9451 0.9490 0.9569);fill-opacity:1;"/>
<path d="M134.474 26.4515V33.7979H130.373V20.916H134.273V23.2812H134.417C134.702 22.4933 135.189 21.8736 135.876 21.4236C136.562 20.9736 137.381 20.7478 138.333 20.7478C139.284 20.7478 140.025 20.9502 140.693 21.3566C141.361 21.7615 141.881 22.3267 142.254 23.0508C142.626 23.7748 142.808 24.6203 142.803 25.5873V33.7979H138.702V26.3923C138.708 25.676 138.527 25.117 138.16 24.7153C137.794 24.3136 137.286 24.1111 136.637 24.1111C136.207 24.1111 135.827 24.2046 135.5 24.3914C135.173 24.5783 134.921 24.8461 134.745 25.1933C134.569 25.5406 134.477 25.9594 134.473 26.4515H134.474Z" fill="#F1F2F4" style="fill:#F1F2F4;fill:color(display-p3 0.9451 0.9490 0.9569);fill-opacity:1;"/>
<path d="M5 25.3148V12C19.7068 12 31.628 23.9227 31.628 38.628H18.3148C18.3148 31.2754 12.3542 25.3132 5 25.3132V25.3148Z" fill="#F5575C" style="fill:#F5575C;fill:color(display-p3 0.9608 0.3412 0.3608);fill-opacity:1;"/>
<path d="M44.9428 25.3148V12C30.236 12 18.3148 23.9227 18.3148 38.628H31.6296C31.6296 31.2754 37.5902 25.3132 44.9444 25.3132L44.9428 25.3148Z" fill="#31AFD4" style="fill:#31AFD4;fill:color(display-p3 0.1922 0.6863 0.8314);fill-opacity:1;"/>
</g>
<defs>
<clipPath id="clip0_507_204">
<rect width="137.803" height="26.628" fill="white" style="fill:white;fill-opacity:1;" transform="translate(5 12)"/>
</clipPath>
</defs>
</svg>
