<svg width="180" height="35" viewBox="0 0 180 35" fill="none" xmlns="http://www.w3.org/2000/svg">
<g clip-path="url(#clip0_523_6906)">
<path d="M68.6095 6.07422L73.6271 22.6092H73.8122L78.8298 6.07422H84.899L77.3288 28.651H70.1105L62.5403 6.07422H68.6095Z" fill="#EEEEEE" style="fill:#EEEEEE;fill:color(display-p3 0.9333 0.9333 0.9333);fill-opacity:1;"/>
<path d="M90.0041 9.74599C89.2516 9.74599 88.6048 9.49425 88.0658 8.99077C87.5248 8.48729 87.2543 7.87944 87.2543 7.1672C87.2543 6.45496 87.5248 5.85733 88.0658 5.35385C88.6068 4.85037 89.2516 4.59863 90.0041 4.59863C90.7566 4.59863 91.4116 4.85037 91.9485 5.35385C92.4855 5.85733 92.7539 6.4611 92.7539 7.1672C92.7539 7.8733 92.4855 8.48729 91.9485 8.99077C91.4116 9.49425 90.7627 9.74599 90.0041 9.74599ZM87.3194 28.651V11.719H92.6766V28.651H87.3194Z" fill="#EEEEEE" style="fill:#EEEEEE;fill:color(display-p3 0.9333 0.9333 0.9333);fill-opacity:1;"/>
<path d="M110.766 16.8888L105.848 17.0197C105.797 16.6677 105.659 16.3525 105.431 16.0783C105.205 15.802 104.911 15.5871 104.549 15.4274C104.186 15.2698 103.77 15.19 103.294 15.19C102.673 15.19 102.144 15.3149 101.711 15.5646C101.278 15.8143 101.062 16.152 101.071 16.5797C101.062 16.9092 101.197 17.1978 101.469 17.4393C101.744 17.6808 102.234 17.8752 102.944 18.0226L106.186 18.6407C107.866 18.9641 109.117 19.5003 109.938 20.2494C110.76 20.9985 111.175 21.9911 111.181 23.2252C111.173 24.3857 110.831 25.3967 110.156 26.2563C109.481 27.1159 108.559 27.7831 107.39 28.258C106.22 28.7328 104.884 28.9682 103.381 28.9682C100.979 28.9682 99.0855 28.4708 97.7004 27.4741C96.3153 26.4794 95.5261 25.1429 95.3289 23.4667L100.621 23.3337C100.737 23.9518 101.04 24.4225 101.53 24.7438C102.02 25.0672 102.645 25.2289 103.403 25.2289C104.091 25.2289 104.648 25.1 105.079 24.8421C105.511 24.5842 105.73 24.2424 105.736 23.8167C105.728 23.434 105.561 23.127 105.232 22.8957C104.902 22.6644 104.388 22.4823 103.686 22.3493L100.751 21.7864C99.0631 21.4774 97.8082 20.9064 96.9824 20.0713C96.1566 19.2383 95.7478 18.1741 95.756 16.8806C95.7478 15.7488 96.0489 14.7807 96.655 13.9763C97.2611 13.172 98.1234 12.556 99.24 12.1303C100.357 11.7046 101.675 11.4917 103.194 11.4917C105.474 11.4917 107.27 11.9706 108.584 12.9305C109.898 13.8904 110.626 15.2064 110.764 16.8826L110.766 16.8888Z" fill="#EEEEEE" style="fill:#EEEEEE;fill:color(display-p3 0.9333 0.9333 0.9333);fill-opacity:1;"/>
<path d="M118.554 28.9376C117.48 28.9376 116.528 28.7554 115.7 28.3911C114.871 28.0268 114.218 27.4763 113.74 26.7374C113.262 25.9986 113.022 25.0714 113.022 23.954C113.022 23.0145 113.186 22.2204 113.514 21.5737C113.841 20.9269 114.295 20.4009 114.873 19.9978C115.45 19.5925 116.113 19.2876 116.866 19.0768C117.618 18.868 118.422 18.7268 119.276 18.6531C120.232 18.5651 121.003 18.4709 121.589 18.3707C122.172 18.2724 122.599 18.1291 122.866 17.9409C123.132 17.7526 123.266 17.4865 123.266 17.1427V17.0874C123.266 16.5225 123.073 16.0845 122.685 15.7755C122.298 15.4664 121.776 15.3129 121.119 15.3129C120.411 15.3129 119.839 15.4664 119.41 15.7755C118.979 16.0845 118.704 16.5102 118.589 17.0546L113.648 16.8786C113.795 15.8492 114.173 14.9302 114.783 14.1177C115.393 13.3052 116.233 12.6666 117.303 12.2C118.373 11.7333 119.66 11.5 121.165 11.5C122.239 11.5 123.228 11.6269 124.135 11.8807C125.04 12.1345 125.829 12.5029 126.5 12.9838C127.172 13.4648 127.692 14.0542 128.06 14.7522C128.429 15.4501 128.614 16.2483 128.614 17.1447V28.6531H123.574V26.2933H123.441C123.142 26.8664 122.76 27.3514 122.296 27.7485C121.833 28.1455 121.287 28.4423 120.663 28.6408C120.039 28.8393 119.335 28.9376 118.554 28.9376ZM120.207 25.4091C120.785 25.4091 121.304 25.2925 121.767 25.0571C122.231 24.8217 122.601 24.4963 122.88 24.0808C123.157 23.6654 123.297 23.1824 123.297 22.6318V21.0231C123.144 21.105 122.959 21.1766 122.744 21.2442C122.528 21.3097 122.292 21.3731 122.036 21.4304C121.78 21.4898 121.517 21.5409 121.247 21.5839C120.976 21.6289 120.718 21.6678 120.468 21.7047C119.963 21.7865 119.534 21.9114 119.18 22.0792C118.826 22.2491 118.556 22.4681 118.369 22.7362C118.182 23.0043 118.09 23.3215 118.09 23.6899C118.09 24.2487 118.29 24.6744 118.686 24.9691C119.085 25.2638 119.591 25.4112 120.203 25.4112L120.207 25.4091Z" fill="#EEEEEE" style="fill:#EEEEEE;fill:color(display-p3 0.9333 0.9333 0.9333);fill-opacity:1;"/>
<path d="M131.874 28.6511V11.7191H137.077V14.8054H137.252C137.559 13.688 138.059 12.857 138.753 12.3085C139.446 11.76 140.254 11.4878 141.175 11.4878C141.423 11.4878 141.679 11.5042 141.942 11.5369C142.204 11.5697 142.45 11.6188 142.676 11.6863V16.3711C142.42 16.2831 142.086 16.2135 141.673 16.1624C141.26 16.1112 140.894 16.0846 140.573 16.0846C139.938 16.0846 139.365 16.2258 138.858 16.5083C138.35 16.7907 137.953 17.1837 137.664 17.6871C137.376 18.1906 137.231 18.7801 137.231 19.4555V28.6491H131.874V28.6511Z" fill="#EEEEEE" style="fill:#EEEEEE;fill:color(display-p3 0.9333 0.9333 0.9333);fill-opacity:1;"/>
<path d="M148.668 34.9996C148.025 34.9996 147.419 34.9505 146.849 34.8502C146.28 34.752 145.79 34.621 145.381 34.4593L146.565 30.5461C147.089 30.7221 147.567 30.8265 147.995 30.8552C148.422 30.8838 148.79 30.8163 149.101 30.6505C149.412 30.4847 149.65 30.192 149.819 29.7745L150.026 29.2669L144.045 11.7168H149.654L152.754 23.7983H152.929L156.073 11.7168H161.715L155.372 30.2698C155.064 31.1949 154.631 32.0136 154.074 32.7217C153.515 33.4319 152.795 33.9865 151.916 34.3918C151.035 34.797 149.953 34.9976 148.668 34.9976V34.9996Z" fill="#EEEEEE" style="fill:#EEEEEE;fill:color(display-p3 0.9333 0.9333 0.9333);fill-opacity:1;"/>
<path d="M169.121 18.995V28.6511H163.763V11.7191H168.858V14.828H169.045C169.418 13.7924 170.054 12.9778 170.951 12.3863C171.848 11.7948 172.918 11.498 174.161 11.498C175.403 11.498 176.372 11.7641 177.244 12.2983C178.117 12.8304 178.796 13.5734 179.282 14.5251C179.768 15.4768 180.006 16.5881 180 17.8591V28.6511H174.643V18.9172C174.651 17.9757 174.415 17.241 173.935 16.7129C173.457 16.1849 172.794 15.9188 171.946 15.9188C171.384 15.9188 170.888 16.0416 170.461 16.2872C170.034 16.5328 169.704 16.8849 169.475 17.3413C169.245 17.7977 169.125 18.3482 169.119 18.995H169.121Z" fill="#EEEEEE" style="fill:#EEEEEE;fill:color(display-p3 0.9333 0.9333 0.9333);fill-opacity:1;"/>
<path d="M0 17.501V0C19.2102 0 34.7817 15.6713 34.7817 35H17.3919C17.3919 25.3357 9.6061 17.499 0 17.499V17.501Z" fill="#F5575C" style="fill:#F5575C;fill:color(display-p3 0.9608 0.3412 0.3608);fill-opacity:1;"/>
<path d="M52.1735 17.501V0C32.9634 0 17.3918 15.6713 17.3918 35H34.7837C34.7837 25.3357 42.5695 17.499 52.1756 17.499L52.1735 17.501Z" fill="#31AFD4" style="fill:#31AFD4;fill:color(display-p3 0.1922 0.6863 0.8314);fill-opacity:1;"/>
</g>
<defs>
<clipPath id="clip0_523_6906">
<rect width="180" height="35" fill="white" style="fill:white;fill-opacity:1;"/>
</clipPath>
</defs>
</svg>
