<svg width="18" height="15" viewBox="0 0 18 15" fill="none" xmlns="http://www.w3.org/2000/svg">
<path d="M2.25 0H16.0312C16.4883 0 16.875 0.386719 16.875 0.84375C16.875 1.30078 16.4883 1.6875 16.0312 1.6875H2.53125C2.07422 1.6875 1.6875 2.07422 1.6875 2.53125C1.6875 2.98828 2.07422 3.375 2.53125 3.375H15.75C16.9805 3.375 18 4.39453 18 5.625V12.375C18 13.6055 16.9805 14.625 15.75 14.625H2.25C1.01953 14.625 0 13.6055 0 12.375V2.25C0 1.01953 1.01953 0 2.25 0ZM14.625 7.875C13.9922 7.875 13.5 8.36719 13.5 9C13.5 9.63281 13.9922 10.125 14.625 10.125C15.2578 10.125 15.75 9.63281 15.75 9C15.75 8.36719 15.2578 7.875 14.625 7.875Z" fill="#A9B1C0" style="fill:#A9B1C0;fill:color(display-p3 0.6627 0.6941 0.7529);fill-opacity:1;"/>
</svg>
