<svg width="18" height="18" viewBox="0 0 18 18" fill="none" xmlns="http://www.w3.org/2000/svg">
<path d="M0 3.375C0 1.51172 1.51172 0 3.375 0H14.625C16.4883 0 18 1.51172 18 3.375V11.25C18 13.1133 16.4883 14.625 14.625 14.625H10.4062C10.2305 14.625 10.0547 14.6953 9.91406 14.8008L5.83594 17.8242C5.69531 17.9297 5.51953 18 5.34375 18C4.88672 18 4.5 17.6133 4.5 17.1562V14.625H3.375C1.51172 14.625 0 13.1133 0 11.25V3.375ZM5.34375 5.0625C4.88672 5.0625 4.5 5.44922 4.5 5.90625C4.5 6.36328 4.88672 6.75 5.34375 6.75H12.6562C13.1133 6.75 13.5 6.36328 13.5 5.90625C13.5 5.44922 13.1133 5.0625 12.6562 5.0625H5.34375ZM5.34375 8.4375C4.88672 8.4375 4.5 8.82422 4.5 9.28125C4.5 9.73828 4.88672 10.125 5.34375 10.125H9.28125C9.73828 10.125 10.125 9.73828 10.125 9.28125C10.125 8.82422 9.73828 8.4375 9.28125 8.4375H5.34375Z" fill="#F7787C" style="fill:#F7787C;fill:color(display-p3 0.9686 0.4706 0.4863);fill-opacity:1;"/>
</svg>
