<svg width="19" height="17" viewBox="0 0 19 17" fill="none" xmlns="http://www.w3.org/2000/svg">
<path d="M9.07031 0C9.59766 0 10.0547 0.28125 10.3008 0.738281L17.8945 14.8008C18.1406 15.2227 18.1406 15.75 17.8594 16.207C17.6133 16.6289 17.1562 16.875 16.6641 16.875H1.47656C0.984375 16.875 0.527344 16.6289 0.28125 16.207C0 15.75 0 15.2227 0.246094 14.8008L7.83984 0.738281C8.08594 0.28125 8.54297 0 9.07031 0ZM9.07031 12.375C8.4375 12.375 7.94531 12.8672 7.94531 13.5C7.94531 14.1328 8.4375 14.625 9.07031 14.625C9.70312 14.625 10.1953 14.1328 10.1953 13.5C10.1953 12.8672 9.70312 12.375 9.07031 12.375ZM9.07031 5.625C8.4375 5.625 7.91016 6.1875 7.98047 6.82031L8.22656 10.4766C8.26172 10.8984 8.61328 11.25 9.07031 11.25C9.52734 11.25 9.87891 10.8984 9.91406 10.4766L10.1602 6.82031C10.2305 6.1875 9.70312 5.625 9.07031 5.625Z" fill="#ABDEED" style="fill:#ABDEED;fill:color(display-p3 0.6706 0.8706 0.9294);fill-opacity:1;"/>
</svg>
