<svg width="14" height="14" viewBox="0 0 14 14" fill="none" xmlns="http://www.w3.org/2000/svg">
<path d="M2.03906 0.421875L6.89062 5.27344L11.707 0.421875C12.1289 0 12.8672 0 13.2891 0.421875C13.7461 0.878906 13.7461 1.58203 13.2891 2.03906L8.47266 6.85547L13.2891 11.6719C13.7461 12.1289 13.7461 12.832 13.2891 13.2891C12.8672 13.7109 12.1289 13.7109 11.707 13.2891L6.89062 8.4375L2.03906 13.2891C1.61719 13.7109 0.878906 13.7109 0.457031 13.2891C0 12.832 0 12.1289 0.457031 11.6719L5.27344 6.85547L0.457031 2.03906C0 1.58203 0 0.878906 0.457031 0.421875C0.878906 0 1.61719 0 2.03906 0.421875Z" fill="#85CFE5" style="fill:#85CFE5;fill:color(display-p3 0.5216 0.8118 0.8980);fill-opacity:1;"/>
</svg>
