<svg width="13" height="13" viewBox="0 0 13 13" fill="none" xmlns="http://www.w3.org/2000/svg">
<path d="M1.8125 0.375L6.125 4.6875L10.4062 0.375C10.7812 0 11.4375 0 11.8125 0.375C12.2188 0.78125 12.2188 1.40625 11.8125 1.8125L7.53125 6.09375L11.8125 10.375C12.2188 10.7812 12.2188 11.4062 11.8125 11.8125C11.4375 12.1875 10.7812 12.1875 10.4062 11.8125L6.125 7.5L1.8125 11.8125C1.4375 12.1875 0.78125 12.1875 0.40625 11.8125C0 11.4062 0 10.7812 0.40625 10.375L4.6875 6.09375L0.40625 1.8125C0 1.40625 0 0.78125 0.40625 0.375C0.78125 0 1.4375 0 1.8125 0.375Z" fill="#A9B1C0" style="fill:#A9B1C0;fill:color(display-p3 0.6627 0.6941 0.7529);fill-opacity:1;"/>
</svg>
